<?xml version="1.0" encoding="iso-8859-1"?>
<!-- Uploaded to: SVG Repo, www.svgrepo.com, Generator: SVG Repo Mixer Tools -->
<svg fill="#000000" height="800px" width="800px" version="1.1" id="Layer_1" xmlns="http://www.w3.org/2000/svg" xmlns:xlink="http://www.w3.org/1999/xlink" 
	 viewBox="0 0 512.009 512.009" xml:space="preserve">
<g>
	<g>
		<g>
			<path d="M277.337,256.007c11.776,0,21.333-9.557,21.333-21.333s-9.557-21.333-21.333-21.333s-21.333,9.557-21.333,21.333
				S265.561,256.007,277.337,256.007z"/>
			<path d="M277.337,298.674c-11.776,0-21.333,9.557-21.333,21.333s9.557,21.333,21.333,21.333s21.333-9.557,21.333-21.333
				S289.113,298.674,277.337,298.674z"/>
			<path d="M277.337,149.34c-70.683,0-128,57.317-128,128s57.317,128,128,128s128-57.317,128-128S348.02,149.34,277.337,149.34z
				 M277.337,362.674c-47.119,0-85.333-38.214-85.333-85.333s38.214-85.333,85.333-85.333s85.333,38.214,85.333,85.333
				S324.456,362.674,277.337,362.674z"/>
			<path d="M307.08,44.344V33.679c0-19.406-16.295-34.56-35.517-33.64C124.746,7.211,7.202,124.762,0.054,271.554
				c-0.98,19.189,14.2,35.512,33.617,35.512h10.664c14.711,115.872,113.645,204.943,232.869,204.943
				c129.674,0,234.795-105.128,234.795-234.816C511.999,157.967,422.95,59.046,307.08,44.344z M264.405,43.281v42.914
				c-5.207,0.546-10.35,1.299-15.427,2.23c-60.921,11.163-111.992,49.574-140.217,102.267
				c-11.965,22.334-19.826,47.232-22.597,73.707H43.296C53.479,146.906,146.943,53.453,264.405,43.281z M277.205,469.342
				c-95.683,0-175.418-70.121-189.795-162.261h7.075c12.207,0,23.097-6.537,28.984-16.465c2.605-4.383,4.237-9.426,4.564-14.865
				c1.85-30.291,12.134-58.188,28.543-81.408c22.705-32.124,57.14-55.289,97.251-63.412c7.144-1.445,14.467-2.413,21.935-2.87
				c4.989-0.3,9.65-1.697,13.773-3.941c0.072-0.039,0.141-0.082,0.212-0.122c0.383-0.212,0.764-0.427,1.137-0.654
				c0.252-0.153,0.497-0.317,0.745-0.476c0.188-0.121,0.38-0.237,0.565-0.361c0.316-0.212,0.623-0.435,0.931-0.658
				c0.111-0.081,0.227-0.156,0.337-0.238c0.316-0.235,0.623-0.48,0.93-0.725c0.097-0.077,0.197-0.15,0.293-0.229
				c0.258-0.211,0.506-0.431,0.757-0.649c0.139-0.121,0.283-0.237,0.42-0.36c0.147-0.132,0.286-0.27,0.43-0.405
				c6.661-6.195,10.787-15.058,10.787-24.742v-7.085c92.143,14.361,162.253,94.086,162.253,189.778
				C469.333,383.317,383.314,469.342,277.205,469.342z"/>
			<path d="M234.67,256.007c-11.776,0-21.333,9.557-21.333,21.333s9.557,21.333,21.333,21.333s21.333-9.557,21.333-21.333
				S246.446,256.007,234.67,256.007z"/>
			<path d="M320.004,256.007c-11.776,0-21.333,9.557-21.333,21.333s9.557,21.333,21.333,21.333s21.333-9.557,21.333-21.333
				S331.78,256.007,320.004,256.007z"/>
		</g>
	</g>
</g>
</svg>