<?xml version="1.0" encoding="iso-8859-1"?>
<!-- Uploaded to: SVG Repo, www.svgrepo.com, Generator: SVG Repo Mixer Tools -->
<svg fill="#000000" height="800px" width="800px" version="1.1" id="Layer_1" xmlns="http://www.w3.org/2000/svg" xmlns:xlink="http://www.w3.org/1999/xlink" 
	 viewBox="0 0 512.001 512.001" xml:space="preserve">
<g>
	<g>
		<path d="M368.048,187.31v-12.075c0-21.93-17.778-39.708-39.708-39.708h-49.331l54.777-58.716
			c4.863-5.213,4.579-13.381-0.634-18.245c-5.214-4.863-13.382-4.58-18.245,0.634l-56.275,60.322L227.629,64.16v49.624
			l12.177,21.744h-12.177v0.21c0,11.084,0,89.044,0,100.479h7.123c0-33.36,27.141-60.501,60.5-60.501
			c18.389,0,34.875,8.257,45.981,21.246c3.286-0.194,6.651,0.052,10.023,0.811l32.88,7.399
			C382.145,196.847,376.019,190.129,368.048,187.31z"/>
	</g>
</g>
<g>
	<g>
		<path d="M126.75,135.528V62.995h23.508V38.748H45.41c-10.138,0-19.077,7.187-21.256,17.088L6.963,133.978
			c0,19.191,0,74.175,0,92.49c0,5.384,4.365,9.75,9.75,9.75h3.613c0-33.36,27.141-60.501,60.501-60.501
			c33.36,0,60.501,27.141,60.501,60.501h8.932c0-11.433,0-89.395,0-100.48v-0.21H126.75z M100.932,135.528H31.447l15.958-72.533
			h53.527V135.528z"/>
	</g>
</g>
<g>
	<g>
		<path d="M347.336,268.51h-31.327c2.633-1.697,5.044-3.704,7.184-5.974c-6.779-4.606-11.755-11.398-14.149-19.147
			c-2.594,4.976-7.791,8.379-13.791,8.379c-8.589,0-15.552-6.962-15.552-15.553c0-8.589,6.962-15.553,15.552-15.553
			c5.218,0,9.827,2.58,12.647,6.524c1.341-8.406,5.453-15.632,11.323-20.955c-6.57-5.259-14.9-8.412-23.97-8.412
			c-21.205,0-38.395,17.19-38.395,38.395c0,13.555,7.032,25.462,17.639,32.294c-49.393,0-19.325,0-68.974,0V16.579
			C205.522,7.423,198.1,0,188.943,0c-9.157,0-16.579,7.423-16.579,16.579V268.51c-15.003,0-57.026,0-70.782,0
			c10.608-6.833,17.639-18.738,17.639-32.294c0-21.205-17.189-38.395-38.395-38.395c-21.205,0-38.396,17.19-38.396,38.395
			c0,13.555,7.032,25.462,17.639,32.294H31.165c-0.479,0-0.952,0.025-1.417,0.071c-6.965,0.71-12.4,6.592-12.4,13.744
			c0,7.631,6.186,13.817,13.817,13.817c0,0,131.784,0,141.198,0v189.331h-16.579c-3.053,0-5.526,2.475-5.526,5.526v0.857v14.618
			c0,3.053,2.475,5.526,5.526,5.526h0.145h66.026h0.145c3.053,0,5.526-2.475,5.526-5.526v-14.618v-0.857
			c0-3.052-2.475-5.526-5.526-5.526h-16.579V296.142c7.383,0,105.502,0,142.126,0c7.545,0,13.66-6.115,13.66-13.66
			C361.308,274.765,355.053,268.51,347.336,268.51z M80.825,251.769c-8.589,0-15.553-6.962-15.553-15.553
			c0-8.589,6.964-15.553,15.553-15.553s15.552,6.964,15.552,15.553S89.415,251.769,80.825,251.769z"/>
	</g>
</g>
<g>
	<g>
		<path d="M505.038,219.639c0-12.1-10.217-21.91-22.319-21.91h-40.123c-9.747,0-18,6.37-20.844,15.171l39.731-1.427L408.3,230.191
			l-61.239-13.78c-9.063-2.037-18.061,3.654-20.099,12.716c-2.039,9.061,3.654,18.061,12.716,20.099l65.955,14.841
			c3.075,0.692,6.29,0.508,9.275-0.544l57.744-20.324c-57.196,42.666-50.412,37.955-51.53,38.718v211.138
			c0,10.461,8.916,18.943,19.379,18.945c0,0,0,0,0.001,0c10.461,0,18.942-8.481,18.943-18.942l0.011-150.978h7.767
			c-0.133,1.437-0.117-8.954,0.335,151.03c0.03,10.444,8.504,18.889,18.942,18.889c0.017,0,0.037,0,0.055,0
			c10.461-0.03,18.51-8.534,18.482-18.997C504.716,379.022,505.038,333.609,505.038,219.639z"/>
	</g>
</g>
<g>
	<g>
		<circle cx="465.04" cy="149.356" r="34.857"/>
	</g>
</g>
</svg>