<?xml version="1.0" encoding="UTF-8" standalone="no"?>
<svg
   xmlns:dc="http://purl.org/dc/elements/1.1/"
   xmlns:cc="http://creativecommons.org/ns#"
   xmlns:rdf="http://www.w3.org/1999/02/22-rdf-syntax-ns#"
   xmlns:svg="http://www.w3.org/2000/svg"
   xmlns="http://www.w3.org/2000/svg"
   viewBox="0 0 4266.6665 2666.6667"
   height="2666.6667"
   width="4266.6665"
   xml:space="preserve"
   id="svg2"
   version="1.1"><metadata
     id="metadata8"><rdf:RDF><cc:Work
         rdf:about=""><dc:format>image/svg+xml</dc:format><dc:type
           rdf:resource="http://purl.org/dc/dcmitype/StillImage" /></cc:Work></rdf:RDF></metadata><defs
     id="defs6" /><g
     transform="matrix(1.3333333,0,0,-1.3333333,0,2666.6667)"
     id="g10"><g
       transform="scale(0.1)"
       id="g12"><g
         transform="scale(1.96319)"
         id="g14"><path
           id="path16"
           style="fill:#ffffff;fill-opacity:1;fill-rule:nonzero;stroke:none"
           d="M 16300,0 H 0 V 10187.5 H 16300 V 0" /></g><g
         transform="scale(1.83637)"
         id="g18"><path
           id="path20"
           style="fill:#ebf3fa;fill-opacity:1;fill-rule:nonzero;stroke:none"
           d="m 15696.7,2823.93 c -59.4,-89.03 -122.5,-168.92 -191.7,-237.36 -16,-16.02 -32,-30.45 -48,-44.93 -90.5,-79.12 -189.4,-138.43 -296.7,-171.15 l -597.2,-3.05 -814.9,-3.82 -544.7,-2.28 -387.3,-1.53 h -17.4 l -255.7,-1.52 h -137 l -3201.44,8.39 h -25.87 l -823.25,2.28 -2201.02,5.34 -897.76,2.29 h -21.31 l -3494.43,8.33 c 0,0 -1070.475,585.83 -1044.605,1606.86 16.741,652.81 238.129,2029.87 2557.105,2352.45 824.72,114.13 1253.83,461.82 1642.61,838.41 82.17,79.13 162.05,159.01 243.45,238.9 554.63,542.46 1181.57,1059.06 2917.76,956.36 104.23,-6.1 203.12,-16.74 298.2,-31.19 311.21,-46.42 578.26,-131.64 823.25,-223.69 589.59,-222.92 1048.41,-489.21 1682.91,-361.39 1221.1,245.74 2160.7,267.81 2886.5,133.9 309,-57.06 578.2,-142.28 814.9,-251.07 1090.2,-499.08 1469.9,-1488.93 1650.2,-2461.26 86.7,-467.11 -68.5,-1677.6 -516.6,-2359.27" /></g><g
         transform="scale(1.02461)"
         id="g22"><path
           id="path24"
           style="fill:#d7e6fd;fill-opacity:1;fill-rule:nonzero;stroke:none"
           d="m 16300,4201.68 h -1459.9 v 44.41 l 135.2,-0.29 1324.7,-3.71 v -40.41" /></g><g
         transform="scale(1.02461)"
         id="g26"><path
           id="path28"
           style="fill:#cde0fb;fill-opacity:1;fill-rule:nonzero;stroke:none"
           d="m 16300,4242.09 -1324.7,3.71 -135.2,0.29 V 14960.1 c 552.2,-83.5 1026,-235.9 1459.9,-401.7 V 14043 l -1459.9,532.3 v -636.7 l 1459.9,-532.3 v -695.2 l -1459.9,532.3 v -636.7 L 16300,12074.4 V 11347 l -1459.9,532.3 v -636.7 l 1459.9,-532.3 v -727.51 l -1459.9,532.31 V 9878.48 L 16300,9346.16 v -727.49 l -1459.9,532.29 V 8514.24 L 16300,7981.94 V 4242.09" /></g><g
         transform="scale(1.02461)"
         id="g30"><path
           id="path32"
           style="fill:#f2c5a0;fill-opacity:1;fill-rule:nonzero;stroke:none"
           d="m 16300,13406.3 v 0 l -1459.9,532.3 v 636.7 L 16300,14043 v -636.7" /></g><g
         transform="scale(1.02461)"
         id="g34"><path
           id="path36"
           style="fill:#f2c5a0;fill-opacity:1;fill-rule:nonzero;stroke:none"
           d="m 16300,12074.4 v 0 l -1459.9,532.3 v 636.7 l 1459.9,-532.3 v -636.7" /></g><g
         transform="scale(1.02461)"
         id="g38"><path
           id="path40"
           style="fill:#f2c5a0;fill-opacity:1;fill-rule:nonzero;stroke:none"
           d="m 16300,10710.3 v 0 l -1459.9,532.3 v 636.7 L 16300,11347 v -636.7" /></g><g
         transform="scale(1.02461)"
         id="g42"><path
           id="path44"
           style="fill:#f2c5a0;fill-opacity:1;fill-rule:nonzero;stroke:none"
           d="m 16300,9346.16 v 0 l -1459.9,532.32 v 636.62 L 16300,9982.79 v -636.63" /></g><g
         transform="scale(1.02461)"
         id="g46"><path
           id="path48"
           style="fill:#f2c5a0;fill-opacity:1;fill-rule:nonzero;stroke:none"
           d="m 16300,7981.94 v 0 l -1459.9,532.3 v 636.72 L 16300,8618.67 v -636.73" /></g><g
         transform="scale(1.64068)"
         id="g50"><path
           id="path52"
           style="fill:#d7e6fd;fill-opacity:1;fill-rule:nonzero;stroke:none"
           d="m 16300,2623.97 h -911.8 v 21.58 l 911.8,4.26 v -25.84" /></g><g
         transform="scale(1.64068)"
         id="g54"><path
           id="path56"
           style="fill:#cde0fb;fill-opacity:1;fill-rule:nonzero;stroke:none"
           d="m 15388.2,2645.55 v 6191.31 c 306.1,-56.57 578.2,-137.98 820.3,-240.17 v 0 c -242.1,102.19 -514.2,183.6 -820.3,240.17 v -132.13 l 911.8,-332.42 v -5722.5 l -911.8,-4.26 m 0,3069.27 v -397.64 l 911.8,-332.42 v 397.64 l -911.8,332.42 m 0,851.91 v -397.57 l 911.8,-332.44 v 397.58 l -911.8,332.43 m 0,851.96 v -397.62 l 911.8,-332.43 v 397.63 l -911.8,332.42 m 0,851.91 v -397.63 l 911.8,-332.42 v 397.62 l -911.8,332.43" /></g><g
         transform="scale(1.64068)"
         id="g58"><path
           id="path60"
           style="fill:#fccba2;fill-opacity:1;fill-rule:nonzero;stroke:none"
           d="m 16300,8556.3 c -30,13.8 -60.5,27.28 -91.5,40.39 31,-13.08 61.5,-26.5 91.5,-40.25 v 0 -0.14" /></g><g
         transform="scale(1.64068)"
         id="g62"><path
           id="path64"
           style="fill:#f2c5a0;fill-opacity:1;fill-rule:nonzero;stroke:none"
           d="m 16300,8372.31 v 0 l -911.8,332.42 v 132.13 c 306.1,-56.57 578.2,-137.98 820.3,-240.17 31,-13.11 61.5,-26.59 91.5,-40.39 v -183.99" /></g><g
         transform="scale(1.64068)"
         id="g66"><path
           id="path68"
           style="fill:#f2c5a0;fill-opacity:1;fill-rule:nonzero;stroke:none"
           d="m 16300,7540.55 -911.8,332.42 v 397.63 l 911.8,-332.43 v -397.62" /></g><g
         transform="scale(1.64068)"
         id="g70"><path
           id="path72"
           style="fill:#f2c5a0;fill-opacity:1;fill-rule:nonzero;stroke:none"
           d="m 16300,6688.64 -911.8,332.43 v 397.62 l 911.8,-332.42 v -397.63" /></g><g
         transform="scale(1.64068)"
         id="g74"><path
           id="path76"
           style="fill:#f2c5a0;fill-opacity:1;fill-rule:nonzero;stroke:none"
           d="m 16300,5836.72 -911.8,332.44 v 397.57 L 16300,6234.3 v -397.58" /></g><g
         transform="scale(1.64068)"
         id="g78"><path
           id="path80"
           style="fill:#f2c5a0;fill-opacity:1;fill-rule:nonzero;stroke:none"
           d="m 16300,4984.76 -911.8,332.42 v 397.64 L 16300,5382.4 v -397.64" /></g><g
         transform="scale(1.77164)"
         id="g82"><path
           id="path84"
           style="fill:#1d2949;fill-opacity:1;fill-rule:nonzero;stroke:none"
           d="m 5930.73,3221.48 h 7751.37 l 2617.9,235.83 c 0,0 -468.4,1167.17 -596.1,1184.67 -127.7,17.55 -9527.64,0 -9527.64,0 l -245.53,-1420.5" /></g><g
         transform="scale(1.91415)"
         id="g86"><path
           id="path88"
           style="fill:#f99746;fill-opacity:1;fill-rule:nonzero;stroke:none"
           d="m 16121.5,3088 c -178.5,-73.04 -1257.7,-89.29 -1257.7,-89.29 0,0 24.3,1322.68 -1087.4,1168.51 C 12664.8,4013 12859.1,2915.23 12859.1,2915.23 l -5344.66,-95.39 c 0,0 86.83,1394.4 -1093.17,1247.7 C 5440.84,3945.71 5692.7,2825.11 5692.7,2825.11 4715.33,2774.59 4614.33,3106.44 4614.33,3106.44 v 137.03 h 61.3 v 360.68 h -61.3 v 268.63 l 205.58,470.71 0.05,0.05 c 346.35,595.04 3061.96,757.31 3061.96,757.31 412.45,237.12 754.43,413.33 1021.91,541.33 426.72,204.16 913.2,403.25 1383.97,449.78 1274.7,126 2322.8,-16.77 2579.8,-58.43 300.2,-48.69 1809.5,-705.94 1923.2,-762.75 113.5,-56.78 1040.1,-133.84 1159.1,-148.31 119.1,-14.36 115.5,-133.37 115.5,-133.37 l 16.3,-105.64 62.3,-402.16 15.2,-98.11 c 86.5,-43.31 86.6,-167.28 86.6,-167.28 0,0 54.2,-1054.88 -124.3,-1127.91" /></g><path
         id="path90"
         style="fill:#2c3a64;fill-opacity:1;fill-rule:nonzero;stroke:none"
         d="m 11018.4,6125.1 c 0,870 705.3,1575.3 1575.4,1575.3 870,0 1575.3,-705.3 1575.3,-1575.3 0,-870.1 -705.3,-1575.4 -1575.3,-1575.4 -870.1,0 -1575.4,705.3 -1575.4,1575.4" /><path
         id="path92"
         style="fill:#afcdfb;fill-opacity:1;fill-rule:nonzero;stroke:none"
         d="m 12593.8,7243.2 c -616.6,0 -1118.1,-501.6 -1118.1,-1118.1 0,-616.5 501.5,-1118.1 1118.1,-1118.1 616.5,0 1118.1,501.6 1118.1,1118.1 0,616.5 -501.6,1118.1 -1118.1,1118.1 z m 0,-2350.1 c -679.4,0 -1232,552.6 -1232,1232 0,679.3 552.6,1232 1232,1232 679.3,0 1232,-552.7 1232,-1232 0,-679.4 -552.7,-1232 -1232,-1232" /><path
         id="path94"
         style="fill:#afcdfb;fill-opacity:1;fill-rule:nonzero;stroke:none"
         d="m 12804.1,4948.8 h -441.4 l 141.7,1209.8 -162,1149 504.5,-31.1 -168.2,-1117.9 125.4,-1209.8" /><path
         id="path96"
         style="fill:#afcdfb;fill-opacity:1;fill-rule:nonzero;stroke:none"
         d="m 11677.9,5357.3 -220.7,382.3 1118.6,482 914.2,714.7 225.3,-452.5 -1052.3,-413.2 -985.1,-713.3" /><path
         id="path98"
         style="fill:#afcdfb;fill-opacity:1;fill-rule:nonzero;stroke:none"
         d="m 11500.9,6581 242.5,368.8 933,-783.1 1049.1,-495.9 -303.2,-404.5 -841.7,754.7 -1079.7,560" /><path
         id="path100"
         style="fill:#afcdfb;fill-opacity:1;fill-rule:nonzero;stroke:none"
         d="m 12180.3,6127.3 c 0,227 184,411 411,411 227.1,0 411.1,-184 411.1,-411 0,-227 -184,-411.1 -411.1,-411.1 -227,0 -411,184.1 -411,411.1" /><g
         transform="scale(1.72625)"
         id="g102"><path
           id="path104"
           style="fill:#2c3a64;fill-opacity:1;fill-rule:nonzero;stroke:none"
           d="m 14474.8,3548.22 c 0,503.99 408.6,912.56 912.6,912.56 504,0 912.6,-408.57 912.6,-912.56 0,-504.04 -408.6,-912.62 -912.6,-912.62 -504,0 -912.6,408.58 -912.6,912.62" /></g><g
         transform="scale(1.70518)"
         id="g106"><path
           id="path108"
           style="fill:#afcdfb;fill-opacity:1;fill-rule:nonzero;stroke:none"
           d="m 15577.5,4247.75 c -361.5,0 -655.7,-294.16 -655.7,-655.7 0,-361.55 294.2,-655.71 655.7,-655.71 361.5,0 655.7,294.16 655.7,655.71 0,361.54 -294.2,655.7 -655.7,655.7 z m 0,-1378.21 c -398.4,0 -722.5,324.07 -722.5,722.51 0,398.37 324.1,722.5 722.5,722.5 398.4,0 722.5,-324.13 722.5,-722.5 0,-398.44 -324.1,-722.51 -722.5,-722.51" /></g><g
         transform="scale(1.64513)"
         id="g110"><path
           id="path112"
           style="fill:#afcdfb;fill-opacity:1;fill-rule:nonzero;stroke:none"
           d="m 16274,3008.15 h -268.3 l 86.1,735.39 -98.4,698.42 306.6,-18.9 -102.2,-679.52 76.2,-735.39" /></g><g
         transform="scale(1.6984)"
         id="g114"><path
           id="path116"
           style="fill:#afcdfb;fill-opacity:1;fill-rule:nonzero;stroke:none"
           d="m 15100.4,3154.31 -129.9,225.1 658.6,283.79 538.3,420.81 132.6,-266.43 -619.6,-243.28 -580,-419.99" /></g><g
         transform="scale(1.69903)"
         id="g118"><path
           id="path120"
           style="fill:#afcdfb;fill-opacity:1;fill-rule:nonzero;stroke:none"
           d="m 14990.7,3873.39 142.8,217.06 549.1,-460.91 617.4,-291.87 -178.5,-238.08 -495.3,444.2 -635.5,329.6" /></g><g
         transform="scale(1.65467)"
         id="g122"><path
           id="path124"
           style="fill:#afcdfb;fill-opacity:1;fill-rule:nonzero;stroke:none"
           d="m 15803.2,3703.04 c 0,137.19 111.2,248.39 248.4,248.39 137.2,0 248.4,-111.2 248.4,-248.39 0,-137.19 -111.2,-248.45 -248.4,-248.45 -137.2,0 -248.4,111.26 -248.4,248.45" /></g><path
         id="path126"
         style="fill:#f9ddbf;fill-opacity:1;fill-rule:nonzero;stroke:none"
         d="M 11006,8319.3 H 9975.46 c -341.01,0 -655.36,-184.5 -821.74,-482.1 l -35.35,-63.3 c -35.68,-63.8 10.47,-142.5 83.62,-142.5 h 1240.21 c 85.7,0 167.4,35.8 225.4,98.7 l 404.5,438.4 c 53.1,57.5 12.3,150.8 -66.1,150.8" /><path
         id="path128"
         style="fill:#1d2949;fill-opacity:1;fill-rule:nonzero;stroke:none"
         d="m 9754.51,6125.1 h -351.73 c -116.38,0 -223.67,-63 -280.45,-164.6 l -12.07,-21.5 c -12.18,-21.8 3.57,-48.7 28.54,-48.7 h 423.29 c 29.22,0 57.11,12.2 76.92,33.7 l 138.04,149.6 c 18.13,19.7 4.2,51.5 -22.54,51.5" /><g
         transform="scale(1.65144)"
         id="g130"><path
           id="path132"
           style="fill:#afcdfb;fill-opacity:1;fill-rule:nonzero;stroke:none"
           d="m 16221.4,6002.66 -3184.3,-75.58 c -62.5,-1.51 -113.9,48.69 -113.9,111.12 v 733.63 c 0,57.75 47.3,104.28 105,103.47 1357.9,-18.88 1823.3,-56.74 2102.4,-153 246.1,-84.92 821.7,-434.12 1119.3,-611.33 50.1,-29.9 29.9,-106.92 -28.5,-108.31" /></g><g
         transform="scale(1.29661)"
         id="g134"><path
           id="path136"
           style="fill:#afcdfb;fill-opacity:1;fill-rule:nonzero;stroke:none"
           d="m 16106.8,8762.81 c 65.8,-0.72 130.2,-1.52 193.2,-2.32 V 7541.72 l -3912.7,-92.85 c -50.9,-1.24 -72,64.86 -29.8,93.39 457.2,308.09 1988.5,1240.52 3749.3,1220.55" /></g><g
         transform="scale(1.65077)"
         id="g138"><path
           id="path140"
           style="fill:#afcdfb;fill-opacity:1;fill-rule:nonzero;stroke:none"
           d="m 16217.1,6004.82 -1.7,-0.06 v 133.07 c 10.8,-6.53 21.4,-12.8 31.7,-18.88 52.9,-31.49 31.6,-112.67 -30,-114.13" /></g><g
         transform="scale(1.30932)"
         id="g142"><path
           id="path144"
           style="fill:#f99746;fill-opacity:1;fill-rule:nonzero;stroke:none"
           d="m 16300,7419.89 -474.5,37.57 31.6,1290.77 H 16300 V 7419.89" /></g><g
         transform="scale(1.55074)"
         id="g146"><path
           id="path148"
           style="fill:#f99746;fill-opacity:1;fill-rule:nonzero;stroke:none"
           d="m 16300,6264.74 h -187 v 978.63 l 187,-112.2 v -866.43" /></g><g
         transform="scale(1.0337)"
         id="g150"><path
           id="path152"
           style="fill:#2c3a64;fill-opacity:1;fill-rule:nonzero;stroke:none"
           d="m 16150.3,9857.23 149.7,-495.71 -818.6,-19.44 c -47.8,-1.07 -68.4,60.07 -29.6,88.03 184.8,132.92 527.3,369.78 698.5,427.12" /></g><g
         transform="scale(1.27628)"
         id="g154"><path
           id="path156"
           style="fill:#1d2949;fill-opacity:1;fill-rule:nonzero;stroke:none"
           d="m 13110.1,7962.92 -22.5,-12.56 c -26.1,-14.59 -51.6,-28.95 -76.4,-43.24 -11.4,-6.51 -22.5,-12.88 -33.4,-19.25 -35.4,-20.46 -69.4,-40.45 -100.9,-59.43 -11.4,-6.82 -22.4,-13.4 -33.2,-19.98 -7.7,-4.62 -15.3,-9.32 -22.9,-13.95 -5.1,-3.05 -9.8,-6.03 -14.5,-8.93 l -3.5,-2.11 c -14.8,-9.09 -29.2,-18.02 -43.2,-26.72 l -9.1,-5.72 c -16.2,-10.19 -31.8,-20.14 -47,-29.78 -21.1,-13.47 -41,-26.32 -59.7,-38.54 l -25,-16.46 c -16.5,-10.81 -31.9,-21.07 -46.3,-30.79 -17.3,-11.75 -33.2,-22.57 -47.4,-32.44 l -6.6,-4.54 682.6,16.14 2942.7,69.89 c 50.4,1.17 91.3,43.09 91.3,93.47 v 1026.08 c 0,17.51 -6.9,33.87 -19.4,46.09 -12.6,12.25 -29.2,18.7 -46.8,18.27 -8.8,-0.25 -17.7,-0.52 -26.5,-0.81 l -22.7,-0.81 c -8.8,-0.3 -17.8,-0.7 -26.7,-1.08 l -1,-0.05 c -10.2,-0.4 -20.2,-0.88 -30.3,-1.37 -12.5,-0.56 -25,-1.2 -37.4,-1.93 l -5,-0.25 c -11.2,-0.63 -22.3,-1.27 -33.5,-2 l -57.3,-3.89 c -9.7,-0.7 -19.4,-1.5 -29.2,-2.28 -13.5,-1.02 -26.2,-2.07 -38.9,-3.19 -13.5,-1.13 -26.8,-2.33 -40,-3.62 -10,-0.9 -19.8,-1.86 -29.7,-2.9 -9.1,-0.83 -17.7,-1.69 -26.2,-2.71 -9,-0.87 -17.3,-1.74 -25.5,-2.69 -12.1,-1.23 -23.6,-2.56 -35.2,-3.9 l -2.7,-0.32 c -41.7,-4.83 -84.4,-10.27 -126.9,-16.13 -22.7,-3.15 -45.5,-6.46 -68.1,-9.85 l -1.8,-0.29 c -13,-2 -26,-3.99 -38.9,-6.07 -25.8,-4.05 -51.3,-8.33 -76.8,-12.69 l -12.4,-2.15 c -8.7,-1.51 -17.3,-3.01 -26,-4.6 -13.6,-2.44 -27.1,-4.86 -40.6,-7.36 -12,-2.25 -23.9,-4.51 -35.9,-6.85 -12.1,-2.31 -24.1,-4.67 -36.1,-7.03 l -2,-0.42 c -12.6,-2.48 -25.2,-4.97 -37.7,-7.62 -12.8,-2.62 -25.4,-5.2 -37.9,-7.87 -12.5,-2.65 -25,-5.31 -37.6,-8.05 -12.4,-2.75 -24.9,-5.49 -37.4,-8.32 -9.3,-2.06 -18.6,-4.19 -27.8,-6.3 l -9.5,-2.2 c -12.4,-2.81 -24.7,-5.7 -36.9,-8.67 -20.9,-4.88 -41.5,-9.88 -61.8,-14.95 -4.3,-1.03 -8.2,-2.01 -12.1,-3.01 l -3.1,-0.78 c -47.4,-11.84 -95.2,-24.39 -142.2,-37.31 -23.9,-6.48 -47.4,-13.1 -71,-19.8 l -37.4,-10.79 c -22.3,-6.56 -44.7,-13.28 -67.1,-20 -14.5,-4.4 -29,-8.84 -43.5,-13.36 -21.2,-6.58 -42.2,-13.28 -63.2,-19.99 -11.5,-3.62 -22.9,-7.32 -34.2,-11.08 l -1.5,-0.46 c -10.9,-3.58 -21.9,-7.15 -32.8,-10.79 l -40.7,-13.66 c -10.8,-3.61 -21.5,-7.23 -32.1,-10.91 l -28.6,-9.93 c -130.2,-45.33 -261.4,-95.24 -390.2,-148.34 -19.2,-7.92 -38.3,-15.85 -57.2,-23.79 -36.5,-15.34 -69.1,-29.39 -99.9,-42.92 l -30.9,-13.63 c -20.5,-9.04 -40.7,-18.07 -60.7,-27.18 -10.3,-4.58 -20.2,-9.06 -30,-13.63 -30.1,-13.73 -59.5,-27.37 -88.5,-41.1 l -29.1,-13.75 c -92.7,-44.3 -185.7,-90.76 -275.9,-138.04 -7.3,-3.85 -14.7,-7.75 -22,-11.62 l -15.6,-8.2 c -42.8,-22.79 -86.3,-46.38 -129.4,-70.21 z M 12510,7533.36 c -27.1,0 -50.8,17.09 -59.2,43.02 -8.7,26.33 0.8,54.69 23.6,70.52 l 13.7,9.48 c 14.4,10.03 30.4,20.92 48.1,32.91 14.6,9.79 30.1,20.13 46.8,31.1 l 25.1,16.53 c 19,12.46 39.2,25.47 60.6,39.1 15.2,9.64 30.9,19.67 47.3,30.01 l 2.7,1.65 c 2.2,1.41 4.6,2.9 6.9,4.31 13.8,8.62 28.3,17.63 43.3,26.79 l 3.3,2.03 c 4.9,3.05 9.8,6.13 14.9,9.15 7.4,4.56 15.2,9.3 23.1,14.07 10.9,6.61 22,13.29 33.3,20.05 31.8,19.15 66.1,39.34 101.8,59.95 10.9,6.41 22.1,12.85 33.6,19.38 22.4,12.95 45.6,26.01 69.3,39.26 v 0.02 l 16.7,9.35 c 47.9,26.62 96.4,53.02 144.2,78.44 l 15.7,8.28 c 7.3,3.84 14.6,7.68 22,11.58 91.1,47.76 184.8,94.59 278.5,139.31 l 29.1,13.78 c 29.2,13.83 58.9,27.6 89,41.38 9.9,4.61 20.1,9.21 30.5,13.81 19.9,9.14 40.5,18.28 61.1,27.42 l 31.2,13.67 c 30.9,13.64 63.9,27.83 100.7,43.34 19.1,8 38.3,15.96 57.6,23.93 129.9,53.57 262.3,103.92 393.6,149.63 l 28.8,9.99 c 10.8,3.74 21.6,7.41 32.5,11.08 l 41,13.72 c 11,3.69 22.1,7.31 33.1,10.92 l 1.4,0.42 c 11.5,3.82 23.2,7.59 34.8,11.28 21.1,6.75 42.4,13.51 63.7,20.11 14.5,4.54 29.2,9.03 43.9,13.51 22.6,6.79 45.2,13.54 67.8,20.21 l 37.8,10.86 c 23.7,6.78 47.5,13.47 71.5,19.99 47.4,13.05 95.8,25.72 143.6,37.66 l 2.9,0.73 c 4.2,1.08 8.5,2.16 12.7,3.17 20.4,5.07 41.2,10.14 62.1,15.04 12.3,2.98 25,5.93 37.6,8.81 l 9.5,2.17 c 9.3,2.15 18.7,4.32 28.1,6.38 12.4,2.83 25.1,5.61 37.7,8.38 12.6,2.77 25.2,5.46 37.9,8.15 12.8,2.7 25.5,5.32 38.2,7.93 12.6,2.65 25.4,5.21 38.3,7.75 l 2.1,0.4 c 12,2.4 24.2,4.79 36.3,7.1 12,2.34 24.1,4.63 36.3,6.92 13.6,2.54 27.3,4.98 41,7.43 8.7,1.6 17.5,3.13 26.4,4.67 l 12.4,2.16 c 25.9,4.43 51.8,8.76 77.7,12.84 12.9,2.08 26,4.09 39.2,6.11 l 1.9,0.32 c 23.1,3.45 46,6.78 69.1,9.97 42.8,5.93 86,11.42 128.2,16.31 l 2.8,0.32 c 11.8,1.37 23.6,2.73 35.5,3.95 8.3,0.95 17,1.86 25.7,2.69 8.3,1.02 17.6,1.94 26.8,2.78 9.7,1.02 19.8,2.02 30,2.93 13.3,1.28 26.8,2.51 40.4,3.66 12.9,1.13 25.9,2.21 38.9,3.19 10.3,0.83 20.2,1.63 30.2,2.35 l 57.7,3.91 c 11.3,0.75 22.7,1.4 34.1,2.05 l 5.1,0.27 c 12.4,0.71 25.2,1.37 38,1.94 10,0.49 20.2,0.98 30.4,1.39 l 1,0.04 c 9.1,0.39 18.2,0.79 27.4,1.11 l 22.6,0.8 c 9,0.3 18,0.57 26.9,0.82 35.5,1.1 68.6,-12.05 93.8,-36.63 25.2,-24.54 39.1,-57.43 39.1,-92.61 V 7777.98 c 0,-85.32 -69.3,-156.31 -154.6,-158.35 l -3633.8,-86.27 h -1.6" /></g><g
         transform="scale(1.65214)"
         id="g158"><path
           id="path160"
           style="fill:#1d2949;fill-opacity:1;fill-rule:nonzero;stroke:none"
           d="m 15356.7,6608.67 c -7.2,0 -13,-2.72 -16.5,-4.89 -11.5,-7.2 -18.4,-20.46 -18.4,-35.46 v -535.24 c 0,-10.35 3.9,-20.22 10.8,-26.93 5.7,-5.51 12.8,-8.36 20.2,-8.24 l 869.8,22.58 c 17.7,0.48 23.7,16.71 25.2,21.73 3.2,11.48 1.8,28.26 -12.6,37.7 l -1.9,1.2 c -1.9,1.25 -3.9,2.52 -5.8,3.75 -13.7,8.91 -27.7,18.06 -42.4,27.57 l -84.4,54.47 c -22.8,14.64 -46.4,29.78 -70.7,45.25 -10,6.42 -20.2,12.91 -30.5,19.39 -240.4,152.83 -429.4,267.01 -561.9,339.39 l -10.8,5.88 c -1.1,0.6 -2.1,1.18 -3.2,1.75 -9.7,5.18 -27.9,14.39 -53.2,26.82 -4.9,2.39 -9.5,3.28 -13.7,3.28 z m -4.6,-655.18 c -18.8,0 -36.6,7.38 -50.4,20.88 -15.5,15.01 -24.3,36.44 -24.3,58.71 v 535.24 c 0,30.44 4.5,69.32 29.2,84.68 22.3,13.92 59.8,3.79 83.4,-7.76 26.2,-12.86 44.5,-22.08 54.3,-27.4 1,-0.53 2.4,-1.32 3.9,-2.12 l 10.7,-5.8 c 133.4,-72.86 323.2,-187.54 564.4,-340.86 10.3,-6.48 20.5,-13 30.7,-19.47 24.2,-15.5 47.9,-30.66 70.7,-45.3 l 84.6,-54.59 c 14.7,-9.52 28.8,-18.7 42.2,-27.48 1.8,-1.16 4,-2.52 6,-3.87 l 1.8,-1.2 c 28.2,-18.36 40.7,-53.32 31.1,-87.03 -9,-32.03 -35.2,-53.21 -66.7,-54 l -9.2,-0.24 -860.6,-22.33 c -0.6,-0.06 -1.2,-0.06 -1.8,-0.06" /></g><g
         transform="scale(1.0337)"
         id="g162"><path
           id="path164"
           style="fill:#2c3a64;fill-opacity:1;fill-rule:nonzero;stroke:none"
           d="m 16150.3,9857.23 149.7,-495.71 -818.6,-19.44 c -47.8,-1.07 -68.4,60.07 -29.6,88.03 184.8,132.92 527.3,369.78 698.5,427.12" /></g><g
         transform="scale(1.5355)"
         id="g166"><path
           id="path168"
           style="fill:#1d2949;fill-opacity:1;fill-rule:nonzero;stroke:none"
           d="m 14010.3,7367.45 c -22.3,0 -43.3,-8.61 -59.2,-24.31 -16.2,-15.96 -25.1,-37.26 -25.1,-59.97 v -789.12 c 0,-25.14 9.9,-48.64 27.9,-66.16 18,-17.59 41.9,-27.03 66.8,-26.31 l 2225.3,52.81 v 756.58 c -288,102.24 -782,136.26 -2234.4,156.47 z m 8.1,-1019.86 c -38.4,0 -74.6,14.72 -102.2,41.68 -28.4,27.81 -44.1,64.99 -44.1,104.78 v 789.12 c 0,37.26 14.5,72.2 41.1,98.38 26.6,26.21 61.8,40.12 99.1,39.83 1507.4,-20.96 1974.2,-55.15 2270.2,-166.29 l 17.5,-6.57 v -846.81 l -2278,-54.06 c -1.2,0 -2.4,-0.06 -3.6,-0.06" /></g><g
         transform="scale(1.89583)"
         id="g170"><path
           id="path172"
           style="fill:#a9453d;fill-opacity:1;fill-rule:nonzero;stroke:none"
           d="m 16300,4524.62 h -522.3 c -77.6,0 -151.1,35.66 -199.1,96.68 l -197.5,251.03 c -18.6,23.63 -1.8,58.34 28.3,58.34 h 827.8 l 62.8,-406.05" /></g><path
         id="path174"
         style="fill:#1d2949;fill-opacity:1;fill-rule:nonzero;stroke:none"
         d="m 15087.2,9763.8 -40.3,-67.5 c -156.4,-261.6 -430.7,-430.2 -734.7,-451.7 -819.3,-57.7 -2472.9,-174.2 -3346.4,-235 -1181.6,-82.2 -1731.16,-686 -1739.65,-695.4 662.96,1139 5861.05,1449.6 5861.05,1449.6" /><g
         transform="scale(1.29661)"
         id="g176"><path
           id="path178"
           style="fill:#1d2949;fill-opacity:1;fill-rule:nonzero;stroke:none"
           d="m 16252.1,4680.42 -31.9,0.39 47.9,4091.91 31.9,-0.37 -47.9,-4091.93" /></g><g
         transform="scale(1.50918)"
         id="g180"><path
           id="path182"
           style="fill:#1d2949;fill-opacity:1;fill-rule:nonzero;stroke:none"
           d="m 9517.83,3911.07 -0.53,27.43 6782.2,133.78 0.5,-27.43 -6782.17,-133.78" /></g><g
         transform="scale(1.25665)"
         id="g184"><path
           id="path186"
           style="fill:#ed823a;fill-opacity:1;fill-rule:nonzero;stroke:none"
           d="m 16300,6906.85 c 0,-44.64 -199.2,-80.84 -444.9,-80.84 -245.8,0 -445,36.2 -445,80.84 0,44.65 199.2,80.85 445,80.85 245.7,0 444.9,-36.2 444.9,-80.85" /></g><g
         transform="scale(1.57615)"
         id="g188"><path
           id="path190"
           style="fill:#ed823a;fill-opacity:1;fill-rule:nonzero;stroke:none"
           d="m 16300,5506.76 c 0,-35.59 -158.9,-64.46 -354.8,-64.46 -195.9,0 -354.8,28.87 -354.8,64.46 0,35.59 158.9,64.46 354.8,64.46 195.9,0 354.8,-28.87 354.8,-64.46" /></g><g
         transform="scale(1.64474)"
         id="g192"><path
           id="path194"
           style="fill:#1d2949;fill-opacity:1;fill-rule:nonzero;stroke:none"
           d="m 14713.6,3723.38 -25.2,1.34 c 17.4,320.72 112.5,590.97 282.5,803.34 136.1,169.94 320.1,303.15 546.8,395.93 345.1,141.24 686.7,144.89 757.1,143.86 v 959.23 h 25.2 v -985.2 l -13.1,0.55 c -3.8,0.12 -380.1,13.8 -760.3,-142.03 -222.6,-91.26 -403.1,-221.92 -536.3,-388.45 -166.6,-208.12 -259.7,-473.44 -276.7,-788.57" /></g><path
         id="path196"
         style="fill:#1d2949;fill-opacity:1;fill-rule:nonzero;stroke:none"
         d="m 15611.3,5948 c -16.1,1368.5 60.1,2315.3 126.9,2868.6 72.4,600.4 149.9,881 150.6,883.8 l 39.9,-11.2 c -3.1,-10.9 -306.7,-1128.2 -276,-3740.8 l -41.4,-0.4" /><g
         transform="scale(1.31996)"
         id="g198"><path
           id="path200"
           style="fill:#1d2949;fill-opacity:1;fill-rule:nonzero;stroke:none"
           d="m 16300,8586.2 h -613.8 v 31.38 h 613.8 v -31.38" /></g><path
         id="path202"
         style="fill:#2b478b;fill-opacity:1;fill-rule:nonzero;stroke:none"
         d="m 13843.8,9314.7 -49.3,19.7 590.3,1477.6 49.3,-19.7 -590.3,-1477.6" /><path
         id="path204"
         style="fill:#2b478b;fill-opacity:1;fill-rule:nonzero;stroke:none"
         d="m 13745,9304.4 c 0,21.8 33.2,39.4 74.2,39.4 40.9,0 74.1,-17.6 74.1,-39.4 0,-21.7 -33.2,-39.4 -74.1,-39.4 -41,0 -74.2,17.7 -74.2,39.4" /><path
         id="path206"
         style="fill:#f99746;fill-opacity:1;fill-rule:nonzero;stroke:none"
         d="m 15062.7,9596.3 c -24.5,4.6 -46.7,19.6 -59.6,43.1 -4.7,8.4 -471.4,850.1 -1203.1,1825.3 -672.6,896.5 -1713,2092.6 -2850,2699.7 -42,22.4 -57.9,74.7 -35.5,116.7 22.5,42 74.8,57.9 116.8,35.5 515.8,-275.4 1053.9,-689.1 1599.2,-1229.4 434.5,-430.5 875,-942.2 1309.1,-1521 738.4,-984.5 1209.9,-1835 1214.5,-1843.5 23,-41.7 7.9,-94.1 -33.8,-117.2 -18.3,-10.1 -38.6,-12.8 -57.6,-9.2" /><g
         transform="scale(1.74141)"
         id="g208"><path
           id="path210"
           style="fill:#afcdfb;fill-opacity:1;fill-rule:nonzero;stroke:none"
           d="m 16300,2680.25 c -95.5,-83.44 -199.8,-145.97 -312.9,-180.49 l -629.8,-3.21 -859.3,-4.02 -574.5,-2.41 -408.3,-1.61 h -18.5 l -414,-1.61 h -499 l -540.8,0.8 h -424.4 l -553.6,0.81 h -424.4 l -540.7,0.8 h -425.26 l -652.28,0.81 h -73.05 l -423.56,0.8 h -542.38 l -423.63,0.8 -553.57,0.81 h -423.63 l -541.57,0.8 h -571.24 l 51.34,8.85 22.46,4.02 124.37,21.64 575.26,101.07 h 0.81 l 294.41,51.34 H 16300" /></g><g
         transform="scale(1.40674)"
         id="g212"><path
           id="path214"
           style="fill:#f9ddbf;fill-opacity:1;fill-rule:nonzero;stroke:none"
           d="m 16207.3,9376.13 h -2859.4 c -51,0 -92.7,41.73 -92.7,92.73 v 126.19 c 0,51.02 41.7,92.74 92.7,92.74 h 2859.4 c 51,0 92.7,-41.72 92.7,-92.74 v -126.19 c 0,-51 -41.7,-92.73 -92.7,-92.73" /></g><path
         id="path216"
         style="fill:#d2e4ff;fill-opacity:1;fill-rule:nonzero;stroke:none"
         d="m 1897.06,8533.2 226.89,3.4 c 32.9,0.5 59.97,-25.8 60.45,-58.7 l 16.88,-1130.6 c 0.5,-32.9 -25.78,-60 -58.68,-60.5 l -226.89,-3.4 c -32.9,-0.5 -59.96,25.8 -60.46,58.7 l -16.87,1130.6 c -0.49,32.9 25.78,60 58.68,60.5" /><path
         id="path218"
         style="fill:#aed3ff;fill-opacity:1;fill-rule:nonzero;stroke:none"
         d="m 2125.73,7771.5 c 0.86,-57.3 -44.93,-104.5 -102.26,-105.3 -57.33,-0.9 -104.51,44.9 -105.36,102.2 -0.85,57.4 44.93,104.5 102.26,105.4 57.34,0.9 104.5,-44.9 105.36,-102.3" /><path
         id="path220"
         style="fill:#d2e4ff;fill-opacity:1;fill-rule:nonzero;stroke:none"
         d="m 2091.13,7771 c 0.17,-11.8 -9.25,-21.5 -21.06,-21.7 -11.8,-0.1 -21.51,9.3 -21.69,21.1 -0.18,11.8 9.25,21.5 21.05,21.7 11.81,0.2 21.52,-9.3 21.7,-21.1" /><path
         id="path222"
         style="fill:#d2e4ff;fill-opacity:1;fill-rule:nonzero;stroke:none"
         d="m 1992.41,7769.6 c 0.17,-11.8 -9.26,-21.6 -21.06,-21.7 -11.8,-0.2 -21.51,9.2 -21.69,21 -0.18,11.8 9.25,21.5 21.05,21.7 11.81,0.2 21.52,-9.2 21.7,-21" /><path
         id="path224"
         style="fill:#aed3ff;fill-opacity:1;fill-rule:nonzero;stroke:none"
         d="m 2121.21,8074.6 c 0.85,-57.3 -44.93,-104.5 -102.26,-105.4 -57.33,-0.8 -104.51,45 -105.36,102.3 -0.86,57.3 44.93,104.5 102.25,105.4 57.34,0.8 104.51,-45 105.37,-102.3" /><path
         id="path226"
         style="fill:#d2e4ff;fill-opacity:1;fill-rule:nonzero;stroke:none"
         d="m 2086.6,8074.1 c 0.18,-11.8 -9.25,-21.5 -21.05,-21.7 -11.8,-0.2 -21.52,9.2 -21.69,21 -0.18,11.9 9.25,21.6 21.05,21.7 11.8,0.2 21.52,-9.2 21.69,-21" /><path
         id="path228"
         style="fill:#d2e4ff;fill-opacity:1;fill-rule:nonzero;stroke:none"
         d="m 1987.88,8072.6 c 0.18,-11.8 -9.25,-21.5 -21.05,-21.7 -11.81,-0.2 -21.52,9.3 -21.69,21.1 -0.18,11.8 9.24,21.5 21.05,21.7 11.8,0.1 21.52,-9.3 21.69,-21.1" /><path
         id="path230"
         style="fill:#aed3ff;fill-opacity:1;fill-rule:nonzero;stroke:none"
         d="m 2116.68,8377.7 c 0.86,-57.4 -44.93,-104.5 -102.26,-105.4 -57.33,-0.9 -104.5,44.9 -105.36,102.3 -0.85,57.3 44.93,104.5 102.26,105.3 57.34,0.9 104.51,-44.9 105.36,-102.2" /><path
         id="path232"
         style="fill:#d2e4ff;fill-opacity:1;fill-rule:nonzero;stroke:none"
         d="m 2082.08,8377.1 c 0.18,-11.8 -9.25,-21.5 -21.05,-21.7 -11.81,-0.1 -21.52,9.3 -21.69,21.1 -0.18,11.8 9.24,21.5 21.05,21.7 11.8,0.2 21.51,-9.3 21.69,-21.1" /><path
         id="path234"
         style="fill:#d2e4ff;fill-opacity:1;fill-rule:nonzero;stroke:none"
         d="m 1983.36,8375.7 c 0.18,-11.8 -9.25,-21.5 -21.06,-21.7 -11.8,-0.2 -21.51,9.2 -21.68,21 -0.18,11.8 9.24,21.6 21.05,21.7 11.8,0.2 21.51,-9.2 21.69,-21" /><path
         id="path236"
         style="fill:#aed3ff;fill-opacity:1;fill-rule:nonzero;stroke:none"
         d="m 2130.25,7468.5 c 0.86,-57.3 -44.92,-104.5 -102.26,-105.4 -57.33,-0.8 -104.5,45 -105.35,102.3 -0.86,57.3 44.92,104.5 102.25,105.3 57.34,0.9 104.5,-44.9 105.36,-102.2" /><path
         id="path238"
         style="fill:#d2e4ff;fill-opacity:1;fill-rule:nonzero;stroke:none"
         d="m 2095.65,7468 c 0.18,-11.8 -9.25,-21.5 -21.06,-21.7 -11.8,-0.2 -21.51,9.2 -21.68,21 -0.18,11.8 9.24,21.5 21.05,21.7 11.8,0.2 21.51,-9.2 21.69,-21" /><path
         id="path240"
         style="fill:#d2e4ff;fill-opacity:1;fill-rule:nonzero;stroke:none"
         d="m 1996.93,7466.5 c 0.17,-11.8 -9.25,-21.5 -21.06,-21.7 -11.8,-0.2 -21.51,9.3 -21.69,21.1 -0.17,11.8 9.25,21.5 21.06,21.6 11.8,0.2 21.51,-9.2 21.69,-21" /><path
         id="path242"
         style="fill:#2a4e96;fill-opacity:1;fill-rule:nonzero;stroke:none"
         d="m 1876.29,8078.9 c 0,68.4 55.41,123.8 123.76,123.8 68.35,0 123.76,-55.4 123.76,-123.8 0,-68.3 -55.41,-123.7 -123.76,-123.7 -68.35,0 -123.76,55.4 -123.76,123.7" /><path
         id="path244"
         style="fill:#2a4e96;fill-opacity:1;fill-rule:nonzero;stroke:none"
         d="m 2709.93,6611 c -264.27,48.8 -252.82,506.9 -243.62,874.9 2.94,117.7 5.72,228.9 -2.03,305.7 -7.13,70.6 -36.06,124.9 -85.99,161.4 -123.07,90 -334.45,46.8 -336.57,46.3 l -6.4,30.4 c 9.2,2 227.17,46.4 361.3,-51.6 57.35,-42 90.51,-103.6 98.55,-183.3 7.96,-78.9 5.16,-191 2.19,-309.7 -8.91,-356.2 -19.99,-799.6 218.21,-843.6 l -5.64,-30.5" /><path
         id="path246"
         style="fill:#cde0fb;fill-opacity:1;fill-rule:nonzero;stroke:none"
         d="M 5717.15,4753.4 H 3111.69 V 7358.8 H 5717.15 V 4753.4" /><path
         id="path248"
         style="fill:#afcdfb;fill-opacity:1;fill-rule:nonzero;stroke:none"
         d="m 3459.43,4559.2 h -100.04 v 194.2 h 100.04 v -194.2" /><path
         id="path250"
         style="fill:#afcdfb;fill-opacity:1;fill-rule:nonzero;stroke:none"
         d="m 5581.83,4559.2 h -100.04 v 194.2 h 100.04 v -194.2" /><path
         id="path252"
         style="fill:#afcdfb;fill-opacity:1;fill-rule:nonzero;stroke:none"
         d="m 2995.78,4559.2 h -100.04 v 194.2 h 100.04 v -194.2" /><path
         id="path254"
         style="fill:#afcdfb;fill-opacity:1;fill-rule:nonzero;stroke:none"
         d="M 5717.15,7358.8 H 3111.69 l -372.54,1590.6 2614.92,17.9 363.08,-1608.5" /><path
         id="path256"
         style="fill:#cde0fb;fill-opacity:1;fill-rule:nonzero;stroke:none"
         d="m 4559.82,7963.3 -1322.86,-9.1 -188.46,804.7 1322.86,9 188.46,-804.6" /><path
         id="path258"
         style="fill:#f99746;fill-opacity:1;fill-rule:nonzero;stroke:none"
         d="m 4644.66,8528.8 c -29.09,148.6 67.82,269.1 216.46,269.1 148.65,0 292.73,-120.5 321.83,-269.1 29.1,-148.7 -67.82,-269.2 -216.46,-269.2 -148.64,0 -292.73,120.5 -321.83,269.2" /><path
         id="path260"
         style="fill:#7c9af2;fill-opacity:1;fill-rule:nonzero;stroke:none"
         d="m 4682.62,8528.8 c -29.09,148.6 67.81,269.1 216.46,269.1 148.64,0 292.73,-120.5 321.83,-269.1 29.09,-148.7 -67.82,-269.2 -216.46,-269.2 -148.65,0 -292.74,120.5 -321.83,269.2" /><path
         id="path262"
         style="fill:#afcdfb;fill-opacity:1;fill-rule:nonzero;stroke:none"
         d="m 4710.74,8528.8 c -26.06,133.1 60.73,241 193.84,241 133.12,0 262.15,-107.9 288.21,-241 26.05,-133.1 -60.73,-241 -193.85,-241 -133.11,0 -262.14,107.9 -288.2,241" /><path
         id="path264"
         style="fill:#f99746;fill-opacity:1;fill-rule:nonzero;stroke:none"
         d="m 4777.38,7850.8 c -29.09,148.6 67.82,269.1 216.46,269.1 148.65,0 292.74,-120.5 321.83,-269.1 29.1,-148.7 -67.81,-269.2 -216.46,-269.2 -148.64,0 -292.73,120.5 -321.83,269.2" /><path
         id="path266"
         style="fill:#7c9af2;fill-opacity:1;fill-rule:nonzero;stroke:none"
         d="m 4815.34,7850.8 c -29.09,148.6 67.81,269.1 216.46,269.1 148.64,0 292.73,-120.5 321.83,-269.1 29.09,-148.7 -67.82,-269.2 -216.46,-269.2 -148.64,0 -292.73,120.5 -321.83,269.2" /><path
         id="path268"
         style="fill:#afcdfb;fill-opacity:1;fill-rule:nonzero;stroke:none"
         d="m 4846.96,7850.8 c -25.69,131.1 59.85,237.5 191.03,237.5 131.18,0 258.34,-106.4 284.02,-237.5 25.68,-131.2 -59.85,-237.6 -191.03,-237.6 -131.19,0 -258.35,106.4 -284.02,237.6" /><path
         id="path270"
         style="fill:#f99746;fill-opacity:1;fill-rule:nonzero;stroke:none"
         d="m 3329.78,7707.5 c -13.61,69.5 31.71,125.8 101.23,125.8 69.51,0 136.89,-56.3 150.5,-125.8 13.6,-69.5 -31.72,-125.9 -101.23,-125.9 -69.51,0 -136.89,56.4 -150.5,125.9" /><path
         id="path272"
         style="fill:#7c9af2;fill-opacity:1;fill-rule:nonzero;stroke:none"
         d="m 3347.53,7707.5 c -13.61,69.5 31.71,125.8 101.22,125.8 69.52,0 136.9,-56.3 150.51,-125.8 13.61,-69.5 -31.72,-125.9 -101.23,-125.9 -69.51,0 -136.89,56.4 -150.5,125.9" /><path
         id="path274"
         style="fill:#afcdfb;fill-opacity:1;fill-rule:nonzero;stroke:none"
         d="m 3362.31,7707.5 c -12,61.3 27.99,111 89.34,111 61.35,0 120.82,-49.7 132.82,-111 12.01,-61.4 -27.99,-111.1 -89.33,-111.1 -61.35,0 -120.82,49.7 -132.83,111.1" /><path
         id="path276"
         style="fill:#f99746;fill-opacity:1;fill-rule:nonzero;stroke:none"
         d="m 3685.19,7707.5 c -13.61,69.5 31.71,125.8 101.23,125.8 69.51,0 136.89,-56.3 150.49,-125.8 13.61,-69.5 -31.71,-125.9 -101.22,-125.9 -69.51,0 -136.9,56.4 -150.5,125.9" /><path
         id="path278"
         style="fill:#7c9af2;fill-opacity:1;fill-rule:nonzero;stroke:none"
         d="m 3702.93,7707.5 c -13.6,69.5 31.72,125.8 101.24,125.8 69.51,0 136.89,-56.3 150.49,-125.8 13.61,-69.5 -31.71,-125.9 -101.22,-125.9 -69.51,0 -136.9,56.4 -150.51,125.9" /><path
         id="path280"
         style="fill:#afcdfb;fill-opacity:1;fill-rule:nonzero;stroke:none"
         d="m 3717.72,7707.5 c -12.01,61.3 27.99,111 89.34,111 61.34,0 120.81,-49.7 132.82,-111 12.01,-61.4 -27.99,-111.1 -89.34,-111.1 -61.34,0 -120.81,49.7 -132.82,111.1" /><path
         id="path282"
         style="fill:#f99746;fill-opacity:1;fill-rule:nonzero;stroke:none"
         d="m 4098.14,7707.5 c -13.6,69.5 31.72,125.8 101.23,125.8 69.51,0 136.89,-56.3 150.5,-125.8 13.61,-69.5 -31.72,-125.9 -101.23,-125.9 -69.51,0 -136.89,56.4 -150.5,125.9" /><path
         id="path284"
         style="fill:#7c9af2;fill-opacity:1;fill-rule:nonzero;stroke:none"
         d="m 4115.89,7707.5 c -13.6,69.5 31.72,125.8 101.23,125.8 69.51,0 136.89,-56.3 150.5,-125.8 13.61,-69.5 -31.71,-125.9 -101.22,-125.9 -69.52,0 -136.9,56.4 -150.51,125.9" /><path
         id="path286"
         style="fill:#afcdfb;fill-opacity:1;fill-rule:nonzero;stroke:none"
         d="m 4130.68,7707.5 c -12.01,61.3 27.99,111 89.33,111 61.35,0 120.82,-49.7 132.83,-111 12,-61.4 -27.99,-111.1 -89.34,-111.1 -61.35,0 -120.81,49.7 -132.82,111.1" /><path
         id="path288"
         style="fill:#7c9af2;fill-opacity:1;fill-rule:nonzero;stroke:none"
         d="m 2739.15,8949.4 v -4196 h 372.54 v 2605.4 l -372.54,1590.6" /><path
         id="path290"
         style="fill:#afcdfb;fill-opacity:1;fill-rule:nonzero;stroke:none"
         d="m 3291.91,4502.8 c 0,64.9 52.61,117.5 117.5,117.5 64.9,0 117.51,-52.6 117.51,-117.5 0,-64.9 -52.61,-117.5 -117.51,-117.5 -64.89,0 -117.5,52.6 -117.5,117.5" /><path
         id="path292"
         style="fill:#f99746;fill-opacity:1;fill-rule:nonzero;stroke:none"
         d="m 3353.05,4502.8 c 0,31.1 25.23,56.4 56.36,56.4 31.14,0 56.38,-25.3 56.38,-56.4 0,-31.1 -25.24,-56.4 -56.38,-56.4 -31.13,0 -56.36,25.3 -56.36,56.4" /><path
         id="path294"
         style="fill:#afcdfb;fill-opacity:1;fill-rule:nonzero;stroke:none"
         d="m 5414.31,4502.8 c 0,64.9 52.6,117.5 117.5,117.5 64.89,0 117.5,-52.6 117.5,-117.5 0,-64.9 -52.61,-117.5 -117.5,-117.5 -64.9,0 -117.5,52.6 -117.5,117.5" /><path
         id="path296"
         style="fill:#f99746;fill-opacity:1;fill-rule:nonzero;stroke:none"
         d="m 5475.44,4502.8 c 0,31.1 25.24,56.4 56.37,56.4 31.13,0 56.37,-25.3 56.37,-56.4 0,-31.1 -25.24,-56.4 -56.37,-56.4 -31.13,0 -56.37,25.3 -56.37,56.4" /><path
         id="path298"
         style="fill:#afcdfb;fill-opacity:1;fill-rule:nonzero;stroke:none"
         d="m 2828.26,4502.8 c 0,64.9 52.6,117.5 117.5,117.5 64.89,0 117.5,-52.6 117.5,-117.5 0,-64.9 -52.61,-117.5 -117.5,-117.5 -64.9,0 -117.5,52.6 -117.5,117.5" /><path
         id="path300"
         style="fill:#f99746;fill-opacity:1;fill-rule:nonzero;stroke:none"
         d="m 2889.39,4502.8 c 0,31.1 25.23,56.4 56.37,56.4 31.13,0 56.37,-25.3 56.37,-56.4 0,-31.1 -25.24,-56.4 -56.37,-56.4 -31.14,0 -56.37,25.3 -56.37,56.4" /><path
         id="path302"
         style="fill:#dde7fe;fill-opacity:1;fill-rule:nonzero;stroke:none"
         d="m 4232.88,6545 h -773.45 v 573.1 h 773.45 V 6545" /><path
         id="path304"
         style="fill:#7c9af2;fill-opacity:1;fill-rule:nonzero;stroke:none"
         d="M 5531.81,6545 H 4386.24 v 573.1 H 5531.81 V 6545" /><path
         id="path306"
         style="fill:#7c9af2;fill-opacity:1;fill-rule:nonzero;stroke:none"
         d="m 4102.87,5376.7 h -817.79 c -12.81,0 -23.29,10.5 -23.29,23.3 0,12.8 10.48,23.3 23.29,23.3 h 817.79 c 12.8,0 23.29,-10.5 23.29,-23.3 0,-12.8 -10.49,-23.3 -23.29,-23.3" /><path
         id="path308"
         style="fill:#7c9af2;fill-opacity:1;fill-rule:nonzero;stroke:none"
         d="m 3285.08,5284.4 h 817.79 c 12.8,0 23.29,-10.5 23.29,-23.3 0,-12.8 -10.49,-23.3 -23.29,-23.3 h -817.79 c -12.81,0 -23.29,10.5 -23.29,23.3 0,12.8 10.48,23.3 23.29,23.3" /><path
         id="path310"
         style="fill:#7c9af2;fill-opacity:1;fill-rule:nonzero;stroke:none"
         d="m 3285.08,5145.5 h 817.79 c 12.8,0 23.29,-10.5 23.29,-23.3 0,-12.8 -10.49,-23.3 -23.29,-23.3 h -817.79 c -12.81,0 -23.29,10.5 -23.29,23.3 0,12.8 10.48,23.3 23.29,23.3" /><path
         id="path312"
         style="fill:#ffb27d;fill-opacity:1;fill-rule:nonzero;stroke:none"
         d="m 10353.9,9235.5 c 0,0 209.5,2.3 318.9,-19.5 109.4,-21.7 296.6,-88.7 236.2,-105 -60.4,-16.2 -300.8,-39.9 -366,-50.8 -65.2,-10.9 -121,-83.3 -189.1,-72.5 -68.2,10.9 -163.5,105.1 -163.5,105.1 l 163.5,142.7" /><path
         id="path314"
         style="fill:#ffb27d;fill-opacity:1;fill-rule:nonzero;stroke:none"
         d="m 10597.4,8951.5 -243.5,36.2 c 0,0 45.4,99.6 84.9,72.5 39.6,-27.1 116,-49.1 139.5,-57.1 23.6,-7.9 19.1,-51.6 19.1,-51.6" /><path
         id="path316"
         style="fill:#233862;fill-opacity:1;fill-rule:nonzero;stroke:none"
         d="m 10289.6,9141.5 c 64.9,77.1 64.3,94 64.3,94 0,0 -609.42,754.4 -663.48,827.6 -54.06,73.3 -505.97,1278.8 -505.97,1278.8 -380.45,48.5 -650.6,-361.4 -455.85,-691.8 232.72,-394.8 477.91,-803.9 546.64,-893.3 232.37,-302.3 898.26,-696.6 898.26,-696.6 0,0 65.2,20.8 116.1,81.3" /><path
         id="path318"
         style="fill:#aed3ff;fill-opacity:1;fill-rule:nonzero;stroke:none"
         d="m 9452.69,8829.4 -92.18,75.5 323.44,394.7 92.17,-75.5 -323.43,-394.7" /><path
         id="path320"
         style="fill:#aed3ff;fill-opacity:1;fill-rule:nonzero;stroke:none"
         d="m 9907.93,9336.7 -0.98,-1.2 c -30.34,-35.4 -84.01,-41.6 -121.61,-14.1 -42.1,30.8 -49.22,90.2 -16.59,130 l 0.56,0.7 c 11.74,14.1 -2.55,34.7 -19.57,27.9 -24.31,-9.6 -46.31,-26.3 -62.8,-49.5 -40.34,-56.8 -32.15,-136.4 18.9,-183.9 59.97,-55.7 153.54,-48.7 204.63,13.7 15.13,18.5 24.77,39.6 29.13,61.5 3.68,18.4 -19.67,29.3 -31.67,14.9" /><path
         id="path322"
         style="fill:#aed3ff;fill-opacity:1;fill-rule:nonzero;stroke:none"
         d="m 9401.68,8718.9 0.94,1.1 c 28.72,36.7 24.31,90.6 -10.08,122.1 -38.5,35.2 -98.11,30.5 -130.74,-9.3 l -0.55,-0.7 c -11.47,-14.3 -34.49,-4.3 -31.21,13.7 4.69,25.7 16.65,50.6 36.2,71.3 47.81,50.7 127.41,58.3 183.99,17.6 66.47,-47.8 77.92,-141 26.82,-203.3 -15.12,-18.5 -33.95,-32.1 -54.54,-40.7 -17.35,-7.2 -32.66,13.5 -20.83,28.2" /><path
         id="path324"
         style="fill:#ffb27d;fill-opacity:1;fill-rule:nonzero;stroke:none"
         d="m 9264.98,9167.3 c 0,0 233.59,11.8 270.94,2.6 37.36,-9.2 146.84,-61 146.71,-72 -0.13,-11 -1.04,-44.4 -24.14,-42 -23.11,2.5 -43.74,19 -40.57,9.1 3.17,-10 90.44,-18.7 85.18,-62.7 -5.27,-44 -63.12,-170.7 -164.34,-158.6 -101.21,12.2 -277.87,163.4 -294.51,167.8 -141.12,37.7 20.73,155.8 20.73,155.8" /><path
         id="path326"
         style="fill:#2c3a64;fill-opacity:1;fill-rule:nonzero;stroke:none"
         d="m 6063.59,5060.8 c 0,0 -145.25,-134.6 -116.91,-230.2 28.35,-95.7 159.43,-159.5 177.14,-276.4 17.72,-116.9 88.57,-180.7 152.34,-180.7 63.77,0 304.03,0 304.03,0 0,0 46.93,82.3 -66.43,107.1 -113.37,24.8 -156.12,162.2 -149.03,289.7 7.09,127.6 -10.63,297.6 -10.63,297.6 l -240.91,56.7 -49.6,-63.8" /><path
         id="path328"
         style="fill:#2c3a64;fill-opacity:1;fill-rule:nonzero;stroke:none"
         d="m 7845.6,4693.8 c 0,0 -35.42,-283.4 28.35,-315.3 63.76,-31.9 825.45,-21.3 825.45,-21.3 0,0 0,95.7 -131.07,116.9 -131.09,21.3 -361.37,99.2 -400.34,272.8 -38.97,173.6 -322.39,-53.1 -322.39,-53.1" /><path
         id="path330"
         style="fill:#f99746;fill-opacity:1;fill-rule:nonzero;stroke:none"
         d="m 8534.61,9021.6 c 0,0 -43.04,-537 -93.63,-1182.6 -68.76,-876.9 -151.45,-1954.1 -159.64,-2158.1 -14.13,-354.4 -70.89,-921.2 -70.89,-921.2 0,0 -134.55,-134.7 -403.87,-77.9 0,0 -239.99,809.1 -308.54,1665.2 -1.06,14.1 -2.13,28.2 -3.19,42.3 -63.77,871.6 -162.93,2706.7 -162.93,2706.7 l 1202.69,-74.4" /><path
         id="path332"
         style="fill:#ed823a;fill-opacity:1;fill-rule:nonzero;stroke:none"
         d="M 8189.33,8592.2 7498.04,6347 c -1.06,14.1 -2.13,28.2 -3.19,42.3 -63.77,871.6 -162.93,2706.7 -162.93,2706.7 l 857.41,-503.8" /><path
         id="path334"
         style="fill:#f99746;fill-opacity:1;fill-rule:nonzero;stroke:none"
         d="m 8338.04,8957.9 c 0,0 -775.86,-1945 -1286.01,-2859 -510.16,-914.1 -669.58,-1169.1 -669.58,-1169.1 0,0 -292.28,116.9 -318.86,196.6 0,0 195.09,1764.6 536.73,2194.7 193.05,243.1 199.4,721.6 286.36,1215.2 119.3,677.1 376.66,1404.8 376.66,1404.8 l 1074.7,-983.2" /><path
         id="path336"
         style="fill:#ffb27d;fill-opacity:1;fill-rule:nonzero;stroke:none"
         d="m 8693.35,11667.9 c 0,0 323.29,-553.1 633.56,-622.1 0,0 -11.23,138.6 -63.44,258.2 -15.59,35.8 -10.78,77.1 13.48,107.6 13.65,17.2 26.35,33.5 38.12,48.9 76.68,100.8 112.97,162.3 112.97,162.3 l -108.42,281 -73.56,190.7 c -33.48,-62.6 -70.6,-116 -109.39,-161.8 -199.97,-235.6 -443.32,-264.8 -443.32,-264.8" /><path
         id="path338"
         style="fill:#ed975d;fill-opacity:1;fill-rule:nonzero;stroke:none"
         d="m 9136.67,11932.7 c 0,0 -34.4,-279.5 178.4,-472.2 76.68,100.8 112.97,162.3 112.97,162.3 l -108.42,281 c -113,33 -182.95,28.9 -182.95,28.9" /><path
         id="path340"
         style="fill:#ffb27d;fill-opacity:1;fill-rule:nonzero;stroke:none"
         d="m 9511.95,11582.7 c 0,0 -475.17,178.6 -359.36,472.8 115.82,294.2 132.49,515.4 440.78,413.8 308.29,-101.6 322.68,-237 307.91,-344.6 -14.78,-107.6 -262.74,-580.9 -389.33,-542" /><path
         id="path342"
         style="fill:#2a4e96;fill-opacity:1;fill-rule:nonzero;stroke:none"
         d="m 9020.2,9808.1 c 14.02,28 28.62,56.2 43.83,84.8 77.44,144.7 142.87,297.4 192.37,446.8 38.65,115.9 67.57,229.8 84.96,336.1 25.63,156.5 20.15,279 -5.01,402.5 -0.2,0.9 -48.11,189.2 -48.5,189.9 -299.77,134.3 -374.1,480 -374.1,480 0,0 -1015.07,-194.8 -1568.54,-1557.6 0,0 -35.76,-101 -81.87,-249.5 -9.93,-32.2 -20.4,-66.7 -31.11,-102.9 -72.98,-246 1600.38,-403.9 1787.97,-30.1" /><path
         id="path344"
         style="fill:#233862;fill-opacity:1;fill-rule:nonzero;stroke:none"
         d="m 8045.61,10768.8 c 0,0 -288.76,-505.5 -112.34,-891.5 176.42,-385.9 601.35,206.6 601.35,206.6 l -489.01,684.9" /><path
         id="path346"
         style="fill:#2b478b;fill-opacity:1;fill-rule:nonzero;stroke:none"
         d="m 9078.13,12598.5 c -3.39,6.5 -13.1,13.4 -36.67,20.3 0,0 21.91,7.7 47.59,2.4 12.87,32.5 44.48,88.1 105.03,89.2 0,0 -34.6,-9.4 -46.99,-44.3 82.32,53.6 235.91,70.7 621.34,-52.5 507.97,-162.4 258.77,-459.2 182.35,-483.7 -76.39,-24.4 -219.38,125 -346.59,144.1 -127.21,19.1 -193.76,-158.6 -241.99,-173.9 -48.23,-15.2 -21.19,25.3 -72.35,65 -51.17,39.7 -79.14,-55.4 -77.24,-122 1.91,-66.6 -96.15,-130.9 -96.15,-130.9 0,0 0,0 -59.25,105.6 -59.25,105.6 -48.15,491.8 6.38,561.9 4.82,6.2 9.62,12.5 14.54,18.8" /><path
         id="path348"
         style="fill:#f99746;fill-opacity:1;fill-rule:nonzero;stroke:none"
         d="m 8516.58,8795.7 c 18.04,572.5 316.03,638.6 503.62,1012.4 14.02,28 28.62,56.2 43.83,84.8 77.44,144.7 142.87,297.4 192.37,446.8 38.65,115.9 67.57,229.8 84.96,336.1 l -515.54,195.8 c -98.96,37.6 -210.31,-4.3 -259.97,-97.8 -127.57,-240.1 -401.5,-664.1 -778.11,-743.3 -271.28,-57.1 -432.03,-80.3 -524.4,-89.4 -9.93,-32.2 -20.4,-66.7 -31.11,-102.9 -72.98,-246 -174.04,-554.3 -141.39,-783.1 25.19,-176.4 1424.29,-305.3 1425.74,-259.4" /><path
         id="path350"
         style="fill:#f99746;fill-opacity:1;fill-rule:nonzero;stroke:none"
         d="m 8840.84,11729 c 0,0 101.69,-124.2 141.36,-447.7 33.67,-274.6 -19.14,-488.8 -19.14,-488.8 l -88.23,27.8 c 0,0 115.52,466.9 -112.26,882.2 0,0 5.36,7.2 78.27,26.5" /><path
         id="path352"
         style="fill:#2a4e96;fill-opacity:1;fill-rule:nonzero;stroke:none"
         d="m 9341.36,9038.5 c 36.78,100.6 0,173.9 0,173.9 0,0 -556.03,508.2 -589.34,599.1 -33.31,90.9 108.87,1148.9 108.87,1148.9 0,0 -374.83,389.2 -604.44,342.9 -103.28,-20.9 -242.23,-247.9 -241.21,-257.5 45.95,-432.5 129.28,-1160.6 195.3,-1330.4 146.94,-377.9 984.45,-763.9 984.45,-763.9 0,0 116.33,4.8 146.37,87" /><path
         id="path354"
         style="fill:#ed823a;fill-opacity:1;fill-rule:nonzero;stroke:none"
         d="m 8963.99,10697.1 c -6.1,23.7 -30.31,38 -54.08,31.9 -23.76,-6.1 -38.08,-30.3 -31.99,-54 6.11,-23.8 30.32,-38.1 54.09,-32 23.76,6.1 38.08,30.3 31.98,54.1" /><path
         id="path356"
         style="fill:#f99746;fill-opacity:1;fill-rule:nonzero;stroke:none"
         d="m 14395.3,4667.4 -493.2,-329.7 -737.7,1.4 490.4,328.3 h 740.5" /><path
         id="path358"
         style="fill:#f99746;fill-opacity:1;fill-rule:nonzero;stroke:none"
         d="m 16078.8,4667.4 -494.6,-331.1 -737.6,1.4 491.7,329.7 h 740.5" /><path
         id="path360"
         style="fill:#f99746;fill-opacity:1;fill-rule:nonzero;stroke:none"
         d="m 10871.7,4578 -352.1,-236.1 h -739.09 l 89.42,60.1 1001.77,176" /><path
         id="path362"
         style="fill:#f99746;fill-opacity:1;fill-rule:nonzero;stroke:none"
         d="m 12689.4,4667.4 -489,-326.9 h -737.7 l 487.6,326.9 h 739.1" /><g
         transform="scale(1.31729)"
         id="g364"><path
           id="path366"
           style="fill:#f99746;fill-opacity:1;fill-rule:nonzero;stroke:none"
           d="m 16300,3543.19 -379.7,-254.54 h -561.1 l 379.7,254.54 h 561.1" /></g><g
         transform="scale(1.42058)"
         id="g368"><path
           id="path370"
           style="fill:#f99746;fill-opacity:1;fill-rule:nonzero;stroke:none"
           d="m 16300,3285.57 -354.1,-237.02 h -520.3 l 354.1,237.02 h 520.3" /></g><g
         transform="scale(1.10944)"
         id="g372"><path
           id="path374"
           style="fill:#f99746;fill-opacity:1;fill-rule:nonzero;stroke:none"
           d="m 16300,4207.01 -447.1,-299.71 h -667.4 l 448.3,299.71 h 666.2" /></g><g
         transform="scale(1.21272)"
         id="g376"><path
           id="path378"
           style="fill:#f99746;fill-opacity:1;fill-rule:nonzero;stroke:none"
           d="m 15690.5,3848.71 -411.3,-275.33 h 609.5 l 411.3,275.33 h -609.5" /></g><g
         transform="scale(1.72572)"
         id="g380"><path
           id="path382"
           style="fill:#f99746;fill-opacity:1;fill-rule:nonzero;stroke:none"
           d="m 16300,2704.62 -276.1,-185.38 h -0.8 l -429.9,-1.62 278.5,187 h 428.3" /></g><g
         transform="scale(1.51786)"
         id="g384"><path
           id="path386"
           style="fill:#f99746;fill-opacity:1;fill-rule:nonzero;stroke:none"
           d="m 16300,3074.99 -325.9,-218.14 -468.4,-1.84 h -21.2 l 328.6,219.98 h 486.9" /></g><g
         transform="scale(1.62115)"
         id="g388"><path
           id="path390"
           style="fill:#f99746;fill-opacity:1;fill-rule:nonzero;stroke:none"
           d="m 16300,2879.07 -299.9,-200.78 -426.6,-1.73 h -31.9 l 302.5,202.51 h 455.9" /></g><g
         transform="scale(1.798)"
         id="g392"><path
           id="path394"
           style="fill:#2e3552;fill-opacity:1;fill-rule:nonzero;stroke:none"
           d="M 16284.3,2405.84 H 904.032 c -8.643,0 -15.716,7.12 -15.716,15.74 v 1.72 c 0,8.63 7.073,15.69 15.716,15.69 H 16284.3 c 8.6,0 15.7,-7.06 15.7,-15.69 v -1.72 c 0,-8.62 -7.1,-15.74 -15.7,-15.74" /></g></g></g></svg>