<?xml version="1.0" ?>
<!DOCTYPE svg  PUBLIC '-//W3C//DTD SVG 1.1//EN'  'http://www.w3.org/Graphics/SVG/1.1/DTD/svg11.dtd'>
<!-- Uploaded to: SVG Repo, www.svgrepo.com, Generator: SVG Repo Mixer Tools -->
<svg fill="#000000" width="800px" height="800px" viewBox="0 0 512 512" enable-background="new 0 0 512 512" id="Wrench" version="1.1" xml:space="preserve" xmlns="http://www.w3.org/2000/svg" xmlns:xlink="http://www.w3.org/1999/xlink">
<g id="Wrench_1_">
<g>
<g>
<path d="M339.83,19.865h-1.123c-16.503,0-29.93,13.427-29.93,29.93v282.986c0,18.066-6.542,36.064-18.42,50.678     c-9.611,11.828-14.904,26.749-14.904,42.016c0,36.757,29.902,66.66,66.659,66.66h9.612l-24.221-49.537l5-16.465h23.588     l20.346,47.473l6.154-4.911c0.869-0.692,8.646-7.226,14.402-23.131c0.277-0.765,0.541-1.532,0.795-2.304     c8.338-25.415,2.643-54.321-14.865-75.438c-5.806-7.004-9.824-15.23-11.621-23.791c-1.023-4.877-1.543-9.878-1.543-14.862V49.795     C369.76,33.292,356.334,19.865,339.83,19.865z M320.777,112.05h12.797v190.988h12V112.05h12.186v217.119     c0,3.37,0.229,6.743,0.632,10.095h-37.876c0.16-2.156,0.262-4.318,0.262-6.482V112.05z M357.76,100.05h-36.982v-4.416h36.982     V100.05z M338.707,31.865h1.123c9.887,0,17.93,8.043,17.93,17.93v33.838h-36.982V49.795     C320.777,39.908,328.82,31.865,338.707,31.865z M373.686,375.48c14.898,17.97,19.766,42.508,12.701,64.037     c-0.215,0.655-0.439,1.308-0.676,1.961c-1.686,4.658-3.559,8.297-5.257,11.037l-16.449-38.383h-40.399l-8.955,29.496     l17.395,35.576c-25.348-4.738-44.592-27.029-44.592-53.73c0-12.52,4.338-24.752,12.217-34.447     c9.553-11.752,16.078-25.447,19.129-39.764h41.963C363.309,359.989,367.718,368.283,373.686,375.48z"/>
<path d="M339.574,65.773c8.777,0,15.918-7.141,15.918-15.918c0-8.778-7.141-15.919-15.918-15.919     c-8.778,0-15.92,7.141-15.92,15.919C323.654,58.632,330.796,65.773,339.574,65.773z M339.574,45.936     c2.16,0,3.918,1.757,3.918,3.919c0,2.161-1.758,3.918-3.918,3.918c-2.162,0-3.92-1.758-3.92-3.918     C335.654,47.693,337.412,45.936,339.574,45.936z"/>
<rect height="19.572" width="12" x="333.574" y="315.033"/>
</g>
<g>
<path d="M189.584,446.227c-8.778,0-15.919,7.141-15.919,15.919s7.141,15.919,15.919,15.919s15.919-7.141,15.919-15.919     S198.362,446.227,189.584,446.227z M189.584,466.064c-2.161,0-3.919-1.758-3.919-3.919s1.758-3.919,3.919-3.919     s3.919,1.758,3.919,3.919S191.746,466.064,189.584,466.064z"/>
<path d="M243.602,121.333c6.411-10.453,9.799-22.489,9.799-34.808c0-36.757-29.903-66.66-66.66-66.66h-9.612l24.22,49.537     l-4.999,16.464h-23.589l-20.346-47.472l-6.155,4.912c-0.857,0.684-20.128,16.623-20.473,60.829h-15.353v28.105l5.321,3.066     c4.317,2.471,8.42,5.314,12.207,8.46c0.915,0.756,1.823,1.54,2.694,2.323c18.073,16.302,28.438,39.611,28.438,63.95v252.164     c0,16.504,13.428,29.932,29.932,29.932h1.118c16.505,0,29.932-13.428,29.932-29.932V219.558h0v-13.798     C220.077,175.619,228.211,146.425,243.602,121.333z M148.414,59.519l13.09,30.543l-17.362,14.073h-6.362     C137.979,80.987,143.847,66.952,148.414,59.519z M138.687,137.172c-1-0.899-2.035-1.792-3.065-2.644     c-4.102-3.408-8.538-6.51-13.187-9.222v-9.171h25.958l22.539-18.269h34.316l8.955-29.495l-17.395-35.577     c25.347,4.738,44.593,27.029,44.593,53.731c0,10.104-2.776,19.97-8.029,28.534c-16.548,26.98-25.295,58.344-25.296,90.7v13.8h0     v180.392h-12.492V208.962h-12v190.989h-12.49V210.04C171.095,182.309,159.285,155.752,138.687,137.172z M171.095,411.951h36.982     v4.415h-36.982V411.951z M190.145,480.135h-1.118c-9.888,0-17.932-8.045-17.932-17.932v-33.837h36.982v33.837     C208.077,472.09,200.032,480.135,190.145,480.135z"/>
<path d="M207.951,111.13h-48.695v34.698h48.695V111.13z M171.256,123.13h6.348v10.698h-6.348V123.13z M195.951,133.828h-6.347     V123.13h6.347V133.828z"/>
<rect height="19.573" width="12" x="183.584" y="177.395"/>
</g>
</g>
</g>
</svg>