<svg width="144" height="144" viewBox="0 0 144 144" fill="none" xmlns="http://www.w3.org/2000/svg">
<g clip-path="url(#clip0_212_2429)">
<path d="M25.8942 15.1435C27.9208 18.3956 27.8294 22.697 25.3463 25.904L18.8171 34.3367C20.517 35.5117 22.5769 36.203 24.7998 36.2058C30.6312 36.2137 35.3649 31.4924 35.3722 25.661C35.3795 20.1896 31.2238 15.6855 25.8942 15.1435Z" fill="#0A1B3E"/>
<path d="M30.2031 41.1018L24.9464 40.9938C22.3116 39.8213 14.6378 36.4061 12.1201 35.2856L21.6189 23.0184C23.2127 20.96 22.8362 17.999 20.7777 16.4052C18.7193 14.8111 15.7586 15.1879 14.1645 17.2464L0.987181 34.2641C-0.884801 36.6811 0.00844003 40.2158 2.79785 41.457L18.3609 48.3833L13.4869 47.6287C13.4473 48.1006 13.4869 133.032 13.4869 133.032C13.4869 136.337 16.1661 139.016 19.4713 139.016C22.7765 139.016 25.456 136.337 25.456 133.032V88.0791H30.1106V133.031C30.1106 135.016 29.5656 136.872 28.6197 138.462C29.3822 138.814 30.2282 139.016 31.1231 139.016C34.4283 139.016 37.2402 136.337 37.2402 133.032V48.7908H37.2405C37.2464 44.5496 34.1687 41.1071 30.2031 41.1018Z" fill="#0A1B3E"/>
<path d="M41.5113 5.4385C40.5159 4.58773 39.0191 4.70501 38.1698 5.70063L33.5705 11.0826C32.7198 12.0773 32.837 13.5736 33.8326 14.4244C34.8297 15.2763 36.3259 15.1559 37.1741 14.1622L41.7734 8.78028C42.6239 7.78523 42.5066 6.289 41.5113 5.4385Z" fill="#0A1B3E"/>
<path d="M51.873 14.932C51.489 13.6802 50.1633 12.9768 48.9117 13.3604L38.6422 16.5087C37.3907 16.8923 36.687 18.2181 37.0706 19.4696C37.4543 20.7209 38.7798 21.4249 40.0319 21.0412L50.3013 17.893C51.5526 17.5093 52.2563 16.1835 51.873 14.932Z" fill="#0A1B3E"/>
<path d="M140.522 68.2933H130.942C129.022 68.2933 127.466 69.85 127.466 71.7698V76.074L126.75 76.8289L121.503 48.6999C121.161 46.8637 119.558 45.5322 117.69 45.5322H52.8832C51.0155 45.5322 49.4126 46.8637 49.0701 48.6999L42.8646 81.9678V121.732H44.4722V129.962C44.4722 135.025 48.577 139.13 53.6409 139.13C58.7048 139.13 62.8096 135.025 62.8096 129.962V121.732H71.094V124.84C71.094 126.576 72.5013 127.984 74.2378 127.984H96.3356C98.0718 127.984 99.4794 126.576 99.4794 124.84V121.732H107.764V129.962C107.764 135.025 111.869 139.13 116.932 139.13C121.996 139.13 126.101 135.025 126.101 129.962V121.732H127.888C131.281 121.732 134.031 118.982 134.031 115.589V95.8744C134.031 90.9601 131.869 86.5536 128.447 83.5453L132.021 79.7777H140.523C142.443 79.7777 143.999 78.221 143.999 76.3012V71.7698C143.999 69.8497 142.442 68.2933 140.522 68.2933ZM53.3973 109.07C48.955 109.07 45.3539 105.466 45.3539 101.022C45.3539 96.5766 48.9553 92.9736 53.3973 92.9736C57.8396 92.9736 61.4407 96.5772 61.4407 101.022C61.4407 105.467 57.8396 109.07 53.3973 109.07ZM94.3312 115.372H76.2416C74.6253 115.372 73.3147 114.062 73.3147 112.445C73.3147 110.829 74.625 109.519 76.2416 109.519H94.3312C95.9475 109.519 97.2581 110.829 97.2581 112.445C97.2581 114.062 95.9478 115.372 94.3312 115.372ZM99.1636 104.222H71.4095C69.7932 104.222 68.4826 102.911 68.4826 101.295C68.4826 99.6782 69.7929 98.3676 71.4095 98.3676H99.1636C100.78 98.3676 102.091 99.678 102.091 101.295C102.09 102.911 100.78 104.222 99.1636 104.222ZM94.5401 79.4599C94.9842 76.3783 97.635 74.0004 100.838 74.0004C104.04 74.0004 106.691 76.3783 107.135 79.4599H94.5401ZM100.838 67.5356C94.0665 67.5356 88.5074 72.8065 88.038 79.4602H52.9569C52.3654 79.4602 51.7819 79.4928 51.2067 79.5541L56.106 53.2904H77.6164C77.3219 53.768 77.1492 54.3285 77.1492 54.9309V55.4417C77.1492 57.1725 78.5524 58.5756 80.2832 58.5756H90.2908C92.0216 58.5756 93.4247 57.1725 93.4247 55.4417C93.4247 54.8604 93.4841 54.1446 92.9576 53.291H114.468L119.367 79.5547C118.228 79.4341 117.894 79.4608 113.638 79.4608C113.168 72.8062 107.609 67.5356 100.838 67.5356ZM117.176 109.07C112.733 109.07 109.132 105.466 109.132 101.022C109.132 96.5766 112.734 92.9736 117.176 92.9736C121.618 92.9736 125.219 96.5772 125.219 101.022C125.219 105.467 121.618 109.07 117.176 109.07Z" fill="#0A1B3E"/>
</g>
<defs>
<clipPath id="clip0_212_2429">
<rect width="144" height="144" fill="white"/>
</clipPath>
</defs>
</svg>
