<?xml version="1.0" encoding="iso-8859-1"?>
<!-- Uploaded to: SVG Repo, www.svgrepo.com, Generator: SVG Repo Mixer Tools -->
<svg fill="#000000" height="800px" width="800px" version="1.1" id="Layer_1" xmlns="http://www.w3.org/2000/svg" xmlns:xlink="http://www.w3.org/1999/xlink" 
	 viewBox="0 0 512 512" xml:space="preserve">
<g>
	<g>
		<path d="M510.42,144.923c-0.004-0.009,0-0.017-0.006-0.027L428.829,16.243c-1.871-2.95-5.12-4.737-8.613-4.737H91.785
			c-3.493,0-6.743,1.788-8.613,4.737L1.586,144.895c-0.01,0.015-0.009,0.03-0.016,0.045C0.58,146.512,0,148.365,0,150.358v339.937
			c0,5.632,4.566,10.199,10.199,10.199h491.602c5.633,0,10.199-4.567,10.199-10.199V150.358
			C512,148.358,511.416,146.497,510.42,144.923z M97.393,31.904h317.214l68.65,108.254H28.744L97.393,31.904z M144.342,480.096
			H115.58v-48.112h28.762V480.096z M347.259,480.096H164.741v-48.112h182.519V480.096z M202.873,411.586v-20.394h106.253v20.394
			H202.873z M396.42,480.096h-28.762v-48.112h28.762V480.096z M416.292,411.585h-86.768v-30.594c0-5.632-4.566-10.199-10.199-10.199
			H192.674c-5.633,0-10.199,4.567-10.199,10.199v30.594H95.707V340.2c0-9.947,8.094-18.041,18.042-18.041H398.25
			c9.948,0,18.041,8.094,18.041,18.041V411.585z M228.02,230.373c0,5.632,4.566,10.199,10.199,10.199h31.379
			c5.633,0,10.199-4.567,10.199-10.199s-4.566-10.199-10.199-10.199h-5.49v-7.841h81.57l40.882,89.428H125.442l40.881-89.428h77.385
			v7.841h-5.49v0C232.586,220.174,228.02,224.741,228.02,230.373z M491.602,480.096h-74.784v-48.112h9.674
			c5.633,0,10.199-4.567,10.199-10.199v-81.584c0-17.174-11.322-31.751-26.893-36.665l-48.293-105.641
			c-1.659-3.631-5.284-5.959-9.276-5.959H159.772c-3.992,0-7.617,2.328-9.276,5.959l-48.293,105.641
			c-15.571,4.915-26.893,19.492-26.893,36.665v81.584c0,5.632,4.566,10.199,10.199,10.199h9.674v48.112H20.398V160.557h471.203
			V480.096z"/>
	</g>
</g>
<g>
	<g>
		<path d="M307.251,332.092h-9.413c-5.633,0-10.199,4.567-10.199,10.199s4.567,10.199,10.199,10.199h9.413
			c5.633,0,10.199-4.567,10.199-10.199S312.884,332.092,307.251,332.092z"/>
	</g>
</g>
<g>
	<g>
		<path d="M391.975,332.092h-49.16c-5.633,0-10.199,4.567-10.199,10.199s4.566,10.199,10.199,10.199h49.16
			c5.633,0,10.199-4.567,10.199-10.199S397.608,332.092,391.975,332.092z"/>
	</g>
</g>
</svg>