<svg width="144" height="144" viewBox="0 0 144 144" fill="none" xmlns="http://www.w3.org/2000/svg">
<g clip-path="url(#clip0_212_2422)">
<path d="M39.373 47.3269C39.4133 45.9465 39.5382 41.7489 42.5126 40.6264C45.4548 39.516 48.4857 42.5368 49.064 43.1535C49.8238 43.9656 49.7814 45.2412 48.9693 46.0029C48.1552 46.7586 46.8816 46.7204 46.1198 45.9082C45.4206 45.1686 44.3122 44.4291 43.891 44.415C43.9192 44.4714 43.4719 45.1183 43.4013 47.4458C43.1797 54.9645 48.929 57.0644 49.1729 57.149C49.7976 57.3666 50.2873 57.8825 50.4646 58.5193L50.5573 58.8579C50.5916 58.9788 50.6117 59.1017 50.6238 59.2267C52.2863 79.0482 67.9646 85.4625 75.2979 85.4625C82.6312 85.4625 98.3094 79.0502 99.972 59.2267C99.982 59.1037 100.004 58.9828 100.036 58.8639L100.129 58.5254C100.306 57.8765 100.798 57.3566 101.437 57.145C101.667 57.0644 107.416 54.9645 107.194 47.4458C107.118 44.8825 106.584 44.3565 106.578 44.3505C106.328 44.3968 105.189 45.1545 104.474 45.9102C103.71 46.7163 102.437 46.7546 101.626 45.9949C100.818 45.2331 100.774 43.9636 101.534 43.1514C102.112 42.5348 105.141 39.514 108.085 40.6244C111.06 41.7489 111.185 45.9465 111.225 47.3249C111.444 54.7771 107.043 58.8942 103.906 60.466C101.788 80.4769 86.0107 89.4909 75.2999 89.4909C64.5891 89.4909 48.8101 80.4789 46.6922 60.466C43.5545 58.8962 39.1533 54.7811 39.373 47.3269ZM44.5339 33.8392C44.5339 6.07985 66.7051 0 75.2475 0C83.8181 0 106.062 6.07985 106.062 33.8392C106.062 34.7219 105.486 35.5038 104.641 35.7657L101.502 36.735L98.7024 39.8344C98.3195 40.2596 97.7754 40.4994 97.2071 40.4994C97.1426 40.4994 97.0802 40.4974 97.0157 40.4914C96.393 40.4309 95.8368 40.0883 95.5043 39.5624C95.3813 39.387 91.3348 33.8614 75.2979 33.8493C59.0876 33.8614 55.1298 39.51 55.0915 39.5664C54.7469 40.0823 54.1685 40.4309 53.5499 40.4773C52.9332 40.5337 52.3125 40.2999 51.8954 39.8384L49.0963 36.7391L45.9566 35.7698C45.1082 35.5058 44.5339 34.7239 44.5339 33.8392ZM48.5885 32.3621L50.8132 33.0492C51.1598 33.1561 51.4702 33.3556 51.714 33.6236L53.4169 35.5098C56.081 33.2326 62.2434 29.829 75.2979 29.8189C88.3523 29.8269 94.5168 33.2326 97.1809 35.5098L98.8817 33.6256C99.1256 33.3556 99.4359 33.1581 99.7825 33.0492L102.007 32.3621C101.123 4.81229 75.5115 4.0304 75.2475 4.0304C74.9855 4.0304 49.4691 4.81229 48.5885 32.3621ZM53.2113 27.4611C52.8345 26.4132 53.3786 25.2585 54.4245 24.8816C57.2719 23.8559 60.1879 23.0962 63.1321 22.5057C62.6747 20.8936 62.2152 19.2814 61.792 17.6632C61.655 17.1433 61.7336 16.5891 62.0077 16.1276C62.2817 15.6641 62.7291 15.3296 63.251 15.2006C71.2433 13.1955 79.3484 13.1955 87.3407 15.2006C87.8626 15.3316 88.31 15.6641 88.5841 16.1276C88.8582 16.5891 88.9367 17.1433 88.7997 17.6632C88.3765 19.2794 87.9171 20.8916 87.4596 22.5057C90.4038 23.0962 93.3198 23.8559 96.1673 24.8816C97.2152 25.2585 97.7573 26.4132 97.3804 27.4611C97.0842 28.2833 96.3103 28.7931 95.4841 28.7952C95.2584 28.7952 95.0267 28.7549 94.801 28.6743C82.2221 24.1441 68.3676 24.1441 55.7888 28.6743C54.7429 29.0491 53.5902 28.507 53.2113 27.4611ZM67.1263 21.8468C72.5512 21.1233 78.0426 21.1233 83.4675 21.8468C83.7718 20.7827 84.0781 19.7207 84.3663 18.6547C78.3368 17.4194 72.2529 17.4194 66.2255 18.6547C66.5156 19.7207 66.822 20.7827 67.1263 21.8468ZM141.709 64.9377V75.2314C141.709 76.3115 141.132 77.309 140.197 77.8491L132.794 82.1233V107.43C132.794 107.487 132.779 107.537 132.777 107.591C135.218 107.944 137.078 108.754 138.386 110.066C140.792 112.486 140.774 115.882 140.758 118.879L140.756 132.862C140.756 138.918 135.828 143.845 129.773 143.845C123.717 143.845 118.79 138.918 118.79 132.862L118.788 118.879C118.772 115.882 118.754 112.486 121.16 110.066C122.466 108.752 124.328 107.944 126.768 107.591C126.766 107.537 126.752 107.485 126.752 107.43V104.329C124.682 97.3139 120.458 90.8189 114.78 85.7023L109.222 101.524V144H75.2979H41.3801V101.524L35.6186 85.126C27.6848 91.6552 22.4413 100.401 21.3128 109.621C21.5002 109.774 21.7259 109.897 21.8951 110.066C24.3013 112.486 24.2832 115.882 24.267 118.879L24.265 132.864C24.265 138.92 19.3379 143.847 13.2822 143.847C7.22652 143.847 2.29936 138.92 2.29936 132.864L2.29735 118.881C2.28123 115.884 2.26309 112.488 4.66923 110.068C5.60026 109.131 6.81743 108.456 8.31674 108.011V97.3421C8.31674 96.2297 9.21955 95.3269 10.3319 95.3269H11.7688V75.9024C11.7688 75.0681 12.4459 74.391 13.2802 74.391C14.1145 74.391 14.7916 75.0681 14.7916 75.9024V95.3269H16.2304C17.3428 95.3269 18.2456 96.2297 18.2456 97.3421V104.254C20.5994 95.4136 26.2903 87.2561 34.208 81.1097L33.6115 79.4129C33.2427 78.363 33.7949 77.2123 34.8448 76.8435C35.8967 76.4727 37.0454 77.0269 37.4142 78.0768L37.6177 78.6592C40.3503 76.8758 43.2945 75.316 46.4221 74.0323C46.936 73.8207 47.5164 73.8308 48.0222 74.0626C48.528 74.2923 48.9169 74.7235 49.0963 75.2495C52.639 85.6902 62.8319 92.4371 75.0641 92.4371C87.2984 92.4371 97.4913 85.6902 101.034 75.2495C101.211 74.7235 101.6 74.2923 102.108 74.0626C102.614 73.8308 103.194 73.8207 103.708 74.0323C106.957 75.3664 110.008 77.0753 112.839 79.0582L113.184 78.0788C113.552 77.0289 114.701 76.4768 115.753 76.8455C116.803 77.2143 117.355 78.365 116.986 79.4149L116.21 81.6236C120.479 85.2147 124.058 89.5111 126.748 94.2246V82.1254L119.344 77.8511C118.409 77.3111 117.833 76.3135 117.833 75.2334V64.9398C117.833 63.2692 119.185 61.917 120.855 61.917C122.526 61.917 123.878 63.2692 123.878 64.9398V73.4882L129.771 76.8899L135.663 73.4882V64.9398C135.663 63.2692 137.015 61.917 138.686 61.917C140.357 61.917 141.709 63.2671 141.709 64.9377ZM12.3451 106.036H14.2152V99.3573H12.3451V106.036ZM19.618 135.691H15.513C14.4006 135.691 13.4978 134.789 13.4978 133.676C13.4978 132.564 14.4006 131.661 15.513 131.661H20.2306V128.259H15.513C14.4006 128.259 13.4978 127.356 13.4978 126.244C13.4978 125.132 14.4006 124.229 15.513 124.229H20.2326V120.557H15.513C14.4006 120.557 13.4978 119.654 13.4978 118.542C13.4978 117.43 14.4006 116.527 15.513 116.527H20.1983C20.1157 115.034 19.8538 113.732 19.0356 112.91C18.0461 111.914 16.1095 111.408 13.2802 111.408C10.4508 111.408 8.51423 111.912 7.52477 112.91C6.29953 114.141 6.31162 116.432 6.32573 118.858L6.32774 132.864C6.32774 136.697 9.44727 139.816 13.2802 139.816C16.1055 139.816 18.5318 138.118 19.618 135.691ZM47.6091 105.997C47.6091 105.288 47.0327 104.712 46.3234 104.712C45.614 104.712 45.0377 105.288 45.0377 105.997C45.0377 106.707 45.614 107.283 46.3234 107.283C47.0327 107.283 47.6091 106.707 47.6091 105.997ZM93.4911 125.613C93.4911 124.501 92.5883 123.598 91.4759 123.598H59.1199C58.0075 123.598 57.1047 124.501 57.1047 125.613C57.1047 126.726 58.0075 127.629 59.1199 127.629H91.4759C92.5883 127.629 93.4911 126.726 93.4911 125.613ZM75.2979 107.283C76.0072 107.283 76.5836 106.707 76.5836 105.997C76.5836 105.288 76.0072 104.712 75.2979 104.712C74.5885 104.712 74.0122 105.288 74.0122 105.997C74.0122 106.707 74.5885 107.283 75.2979 107.283ZM105.558 105.997C105.558 105.288 104.982 104.712 104.272 104.712C103.563 104.712 102.987 105.288 102.987 105.997C102.987 106.707 103.563 107.283 104.272 107.283C104.982 107.283 105.558 106.707 105.558 105.997ZM111.449 83.008C109.153 81.3132 106.687 79.8159 104.065 78.5887C99.3896 89.5191 88.2455 96.4655 75.0621 96.4655C61.8787 96.4655 50.7326 89.5171 46.0574 78.5826C43.5545 79.7333 41.1967 81.0835 38.9941 82.5848L45.4891 101.074H75.2939H105.099L111.449 83.008ZM135.526 112.91C134.537 111.914 132.598 111.408 129.771 111.408C126.941 111.408 125.005 111.912 124.015 112.91C123.197 113.734 122.935 115.034 122.853 116.527H127.538C128.65 116.527 129.553 117.43 129.553 118.542C129.553 119.654 128.65 120.557 127.538 120.557H122.816V124.229H127.538C128.65 124.229 129.553 125.132 129.553 126.244C129.553 127.356 128.65 128.259 127.538 128.259H122.818V131.661H127.538C128.65 131.661 129.553 132.564 129.553 133.676C129.553 134.789 128.65 135.691 127.538 135.691H123.431C124.517 138.118 126.943 139.816 129.769 139.816C133.602 139.816 136.721 136.697 136.721 132.864L136.723 118.858C136.737 116.432 136.751 114.143 135.526 112.91ZM76.5352 49.4288V59.4101H72.0454C70.933 59.4101 70.0302 60.3129 70.0302 61.4253C70.0302 62.5376 70.933 63.4404 72.0454 63.4404H78.5504C79.6628 63.4404 80.5656 62.5376 80.5656 61.4253V49.4288C80.5656 48.3164 79.6628 47.4136 78.5504 47.4136C77.438 47.4136 76.5352 48.3164 76.5352 49.4288Z" fill="#0A1B3E"/>
</g>
<defs>
<clipPath id="clip0_212_2422">
<rect width="144" height="144" fill="white"/>
</clipPath>
</defs>
</svg>
